<svg xmlns="http://www.w3.org/2000/svg" xmlns:xlink="http://www.w3.org/1999/xlink" width="740" height="250" version="1.1" viewBox="0 0 740 250"><title>architecture-1</title><desc>Created with Sketch.</desc><g id="dtr-diagrams" fill="none" fill-rule="evenodd" stroke="none" stroke-width="1"><g id="architecture-1"><g id="Group" transform="translate(33.000000, 51.000000)"><g id="stack" transform="translate(150.000000, 0.000000)"><g id="servers" transform="translate(0.000000, 114.000000)"><g id="cloud"><rect id="Rectangle-138" width="172" height="34" x="0" y="0" fill="#82949E" rx="2"/><text id="cloud-servers" fill="#FFF" font-family="OpenSans, Open Sans" font-size="14" font-weight="normal"><tspan x="42.51" y="23">cloud servers</tspan></text></g><g id="virtual" transform="translate(176.000000, 0.000000)"><rect id="Rectangle-138" width="172" height="34" x="0" y="0" fill="#82949E" rx="2"/><text id="virtual-servers" fill="#FFF" font-family="OpenSans, Open Sans" font-size="14" font-weight="normal"><tspan x="39.861" y="23">virtual servers</tspan></text></g><g id="physical" transform="translate(352.000000, 0.000000)"><rect id="Rectangle-138" width="172" height="34" x="0" y="0" fill="#82949E" rx="2"/><text id="physical-servers" fill="#FFF" font-family="OpenSans, Open Sans" font-size="14" font-weight="normal"><tspan x="34.208" y="23">physical servers</tspan></text></g></g><g id="docker" transform="translate(0.000000, 76.000000)"><rect id="Rectangle-138" width="524" height="34" x="0" y="0" fill="#1488C6" rx="2"/><text id="CS-Docker-Engine" fill="#FFF" font-family="OpenSans, Open Sans" font-size="14" font-weight="normal"><tspan x="205.464" y="23">CS Docker Engine</tspan></text></g><g id="ucp" transform="translate(0.000000, 38.000000)"><rect id="Rectangle-138" width="524" height="34" x="0" y="0" fill="#1488C6" rx="2"/><text id="Universal-Control-Pl" fill="#FFF" font-family="OpenSans, Open Sans" font-size="14" font-weight="normal"><tspan x="185.537" y="23">Universal Control Plane</tspan></text></g><g id="dtr"><rect id="Rectangle-138" width="172" height="34" x="0" y="0" fill="#1488C6" rx="2"/><text id="Docker-Trusted-Regis" fill="#FFF" font-family="OpenSans, Open Sans" font-size="14" font-weight="normal"><tspan x="8.132" y="23">Docker Trusted Registry</tspan></text></g><g id="your-apps" transform="translate(176.000000, 0.000000)"><rect id="Rectangle-138" width="348" height="34" x="0" y="0" fill="#00B6B5" rx="2"/><text id="your-applications" fill="#FFF" font-family="OpenSans, Open Sans" font-size="14" font-weight="normal"><tspan x="118.428" y="23">your applications</tspan></text></g></g><g id="commands" transform="translate(0.000000, 7.000000)"><g id="command-2" transform="translate(0.000000, 38.000000)"><path id="Line" stroke="#82949E" stroke-linecap="round" stroke-linejoin="round" stroke-width="2" d="M101,10 L136,10"/><circle id="Oval" cx="138" cy="10" r="5" fill="#8F9EA8"/><text id="docker-run" fill="#637986" font-family="CourierNewPS-BoldMT, Courier New" font-size="14" font-weight="bold"><tspan x="0" y="12">docker run</tspan></text></g><g id="command-1"><path id="Line" stroke="#82949E" stroke-linecap="round" stroke-linejoin="round" stroke-width="2" d="M101,9 L136,9"/><circle id="Oval" cx="138" cy="9" r="5" fill="#82949E"/><text id="docker-push" fill="#637986" font-family="CourierNewPS-BoldMT, Courier New" font-size="14" font-weight="bold"><tspan x="0" y="12">docker push</tspan></text></g></g></g></g></g></svg>