<svg xmlns="http://www.w3.org/2000/svg" xmlns:xlink="http://www.w3.org/1999/xlink" width="740" height="250" version="1.1" viewBox="0 0 740 250"><title>architecture-2</title><desc>Created with Sketch.</desc><g id="dtr-diagrams" fill="none" fill-rule="evenodd" stroke="none" stroke-width="1"><g id="architecture-2"><text id="Docker-swarm" fill="#82949E" font-family="OpenSans-Semibold, Open Sans" font-size="10" font-weight="500"><tspan x="28.025" y="239.01">Docker swarm</tspan></text><g id="nodes" transform="translate(36.000000, 15.000000)"><g id="workers" transform="translate(233.000000, 116.000000)"><g id="node-1-copy"><g id="node"><g id="node-label"><rect id="Rectangle-127" width="71" height="21.29" x="0" y="0" fill="#445D6E" rx="2"/><text id="worker-node" fill="#FFF" font-family="OpenSans, Open Sans" font-size="8" font-weight="normal"><tspan x="6" y="14">worker node</tspan></text></g></g><g id="engine" transform="translate(1.000000, 79.000000)"><rect id="Rectangle-138" width="95" height="22" x="0" y="0" fill="#1488C6" rx="2"/><text id="CS-Docker-Engine" fill="#FFF" font-family="OpenSans, Open Sans" font-size="10" font-weight="normal"><tspan x="7.26" y="15">CS Docker Engine</tspan></text></g><g id="ucp" transform="translate(1.000000, 56.000000)"><rect id="Rectangle-138" width="95" height="22" x="0" y="0" fill="#1488C6" rx="2"/><text id="UCP-worker" fill="#FFF" font-family="OpenSans, Open Sans" font-size="10" font-weight="normal"><tspan x="20.476" y="15">UCP worker</tspan></text></g><rect id="node-border" width="97" height="102" x="0" y="0" stroke="#445D6E" stroke-width="2" rx="2"/></g><g id="node-1-copy-2" transform="translate(107.000000, 0.000000)"><g id="node"><g id="node-label"><rect id="Rectangle-127" width="71" height="21.29" x="0" y="0" fill="#445D6E" rx="2"/><text id="worker-node" fill="#FFF" font-family="OpenSans, Open Sans" font-size="8" font-weight="normal"><tspan x="6" y="14">worker node</tspan></text></g></g><g id="engine" transform="translate(1.000000, 79.000000)"><rect id="Rectangle-138" width="95" height="22" x="0" y="0" fill="#1488C6" rx="2"/><text id="CS-Docker-Engine" fill="#FFF" font-family="OpenSans, Open Sans" font-size="10" font-weight="normal"><tspan x="7.26" y="15">CS Docker Engine</tspan></text></g><g id="ucp" transform="translate(1.000000, 56.000000)"><rect id="Rectangle-138" width="95" height="22" x="0" y="0" fill="#1488C6" rx="2"/><text id="UCP-worker" fill="#FFF" font-family="OpenSans, Open Sans" font-size="10" font-weight="normal"><tspan x="20.476" y="15">UCP worker</tspan></text></g><rect id="node-border" width="97" height="102" x="0" y="0" stroke="#445D6E" stroke-width="2" rx="2"/></g></g><g id="worker-dtr" transform="translate(347.000000, 0.000000)"><g id="node-1"><g id="node"><g id="node-label"><rect id="Rectangle-127" width="71" height="21.29" x="0" y="0" fill="#445D6E" rx="2"/><text id="worker-node" fill="#FFF" font-family="OpenSans, Open Sans" font-size="8" font-weight="normal"><tspan x="6" y="14">worker node</tspan></text></g></g><g id="engine" transform="translate(1.000000, 79.000000)"><rect id="Rectangle-138" width="95" height="22" x="0" y="0" fill="#1488C6" rx="2"/><text id="CS-Docker-Engine" fill="#FFF" font-family="OpenSans, Open Sans" font-size="10" font-weight="normal"><tspan x="7.26" y="15">CS Docker Engine</tspan></text></g><g id="ucp" transform="translate(1.000000, 56.000000)"><rect id="Rectangle-138" width="95" height="22" x="0" y="0" fill="#1488C6" rx="2"/><text id="UCP-worker" fill="#FFF" font-family="OpenSans, Open Sans" font-size="10" font-weight="normal"><tspan x="20.476" y="15">UCP worker</tspan></text></g><g id="dtr" transform="translate(1.000000, 33.000000)"><rect id="Rectangle-138" width="95" height="22" x="0" y="0" fill="#FFB463" rx="2"/><text id="DTR" fill="#FFF" font-family="OpenSans, Open Sans" font-size="10" font-weight="normal"><tspan x="38.498" y="15">DTR</tspan></text></g><rect id="node-border" width="97" height="102" x="0" y="0" stroke="#445D6E" stroke-width="2" rx="2"/></g><g id="node-2" transform="translate(107.000000, 0.000000)"><g id="node"><g id="node-label"><rect id="Rectangle-127" width="71" height="21.29" x="0" y="0" fill="#445D6E" rx="2"/><text id="worker-node" fill="#FFF" font-family="OpenSans, Open Sans" font-size="8" font-weight="normal"><tspan x="6" y="14">worker node</tspan></text></g></g><g id="engine" transform="translate(1.000000, 79.000000)"><rect id="Rectangle-138" width="95" height="22" x="0" y="0" fill="#1488C6" rx="2"/><text id="CS-Docker-Engine" fill="#FFF" font-family="OpenSans, Open Sans" font-size="10" font-weight="normal"><tspan x="7.26" y="15">CS Docker Engine</tspan></text></g><g id="ucp" transform="translate(1.000000, 56.000000)"><rect id="Rectangle-138" width="95" height="22" x="0" y="0" fill="#1488C6" rx="2"/><text id="UCP-worker" fill="#FFF" font-family="OpenSans, Open Sans" font-size="10" font-weight="normal"><tspan x="20.476" y="15">UCP worker</tspan></text></g><g id="dtr" transform="translate(1.000000, 33.000000)"><rect id="Rectangle-138" width="95" height="22" x="0" y="0" fill="#FFB463" rx="2"/><text id="DTR" fill="#FFF" font-family="OpenSans, Open Sans" font-size="10" font-weight="normal"><tspan x="38.498" y="15">DTR</tspan></text></g><rect id="node-border" width="97" height="102" x="0" y="0" stroke="#445D6E" stroke-width="2" rx="2"/></g><g id="node-3" transform="translate(214.000000, 0.000000)"><g id="node"><g id="node-label"><rect id="Rectangle-127" width="71" height="21.29" x="0" y="0" fill="#445D6E" rx="2"/><text id="worker-node" fill="#FFF" font-family="OpenSans, Open Sans" font-size="8" font-weight="normal"><tspan x="6" y="14">worker node</tspan></text></g></g><g id="engine" transform="translate(1.000000, 79.000000)"><rect id="Rectangle-138" width="95" height="22" x="0" y="0" fill="#1488C6" rx="2"/><text id="CS-Docker-Engine" fill="#FFF" font-family="OpenSans, Open Sans" font-size="10" font-weight="normal"><tspan x="7.26" y="15">CS Docker Engine</tspan></text></g><g id="ucp" transform="translate(1.000000, 56.000000)"><rect id="Rectangle-138" width="95" height="22" x="0" y="0" fill="#1488C6" rx="2"/><text id="UCP-worker" fill="#FFF" font-family="OpenSans, Open Sans" font-size="10" font-weight="normal"><tspan x="20.476" y="15">UCP worker</tspan></text></g><g id="dtr" transform="translate(1.000000, 33.000000)"><rect id="Rectangle-138" width="95" height="22" x="0" y="0" fill="#FFB463" rx="2"/><text id="DTR" fill="#FFF" font-family="OpenSans, Open Sans" font-size="10" font-weight="normal"><tspan x="38.498" y="15">DTR</tspan></text></g><rect id="node-border" width="97" height="102" x="0" y="0" stroke="#445D6E" stroke-width="2" rx="2"/></g></g><g id="manager-ucp"><g id="node-3" transform="translate(214.000000, 0.000000)"><g id="node"><g id="node-label"><rect id="Rectangle-127" width="71" height="21.29" x="0" y="0" fill="#445D6E" rx="2"/><text id="manager-node" fill="#FFF" font-family="OpenSans, Open Sans" font-size="8" font-weight="normal"><tspan x="6" y="14">manager node</tspan></text></g></g><g id="engine" transform="translate(1.000000, 79.000000)"><rect id="Rectangle-138" width="95" height="22" x="0" y="0" fill="#1488C6" rx="2"/><text id="CS-Docker-Engine" fill="#FFF" font-family="OpenSans, Open Sans" font-size="10" font-weight="normal"><tspan x="7.26" y="15">CS Docker Engine</tspan></text></g><g id="ucp" transform="translate(1.000000, 56.000000)"><rect id="Rectangle-138" width="95" height="22" x="0" y="0" fill="#1488C6" rx="2"/><text id="UCP-manager" fill="#FFF" font-family="OpenSans, Open Sans" font-size="10" font-weight="normal"><tspan x="16.03" y="15">UCP manager</tspan></text></g><rect id="node-border" width="97" height="102" x="0" y="0" stroke="#445D6E" stroke-width="2" rx="2"/></g><g id="node-2" transform="translate(107.000000, 0.000000)"><g id="node"><g id="node-label"><rect id="Rectangle-127" width="71" height="21.29" x="0" y="0" fill="#445D6E" rx="2"/><text id="manager-node" fill="#FFF" font-family="OpenSans, Open Sans" font-size="8" font-weight="normal"><tspan x="6" y="14">manager node</tspan></text></g></g><g id="engine" transform="translate(1.000000, 79.000000)"><rect id="Rectangle-138" width="95" height="22" x="0" y="0" fill="#1488C6" rx="2"/><text id="CS-Docker-Engine" fill="#FFF" font-family="OpenSans, Open Sans" font-size="10" font-weight="normal"><tspan x="7.26" y="15">CS Docker Engine</tspan></text></g><g id="ucp" transform="translate(1.000000, 56.000000)"><rect id="Rectangle-138" width="95" height="22" x="0" y="0" fill="#1488C6" rx="2"/><text id="UCP-manager" fill="#FFF" font-family="OpenSans, Open Sans" font-size="10" font-weight="normal"><tspan x="16.03" y="15">UCP manager</tspan></text></g><rect id="node-border" width="97" height="102" x="0" y="0" stroke="#445D6E" stroke-width="2" rx="2"/></g><g id="node-1"><g id="node"><g id="node-label"><rect id="Rectangle-127" width="71" height="21.29" x="0" y="0" fill="#445D6E" rx="2"/><text id="manager-node" fill="#FFF" font-family="OpenSans, Open Sans" font-size="8" font-weight="normal"><tspan x="6" y="14">manager node</tspan></text></g></g><g id="engine" transform="translate(1.000000, 79.000000)"><rect id="Rectangle-138" width="95" height="22" x="0" y="0" fill="#1488C6" rx="2"/><text id="CS-Docker-Engine" fill="#FFF" font-family="OpenSans, Open Sans" font-size="10" font-weight="normal"><tspan x="7.26" y="15">CS Docker Engine</tspan></text></g><g id="ucp" transform="translate(1.000000, 56.000000)"><rect id="Rectangle-138" width="95" height="22" x="0" y="0" fill="#1488C6" rx="2"/><text id="UCP-manager" fill="#FFF" font-family="OpenSans, Open Sans" font-size="10" font-weight="normal"><tspan x="16.03" y="15">UCP manager</tspan></text></g><rect id="node-border" width="97" height="102" x="0" y="0" stroke="#445D6E" stroke-width="2" rx="2"/></g></g></g><rect id="group" width="687" height="245" x="21" y="3" stroke="#82949E" stroke-dasharray="5 5 5 5" stroke-width="2" rx="2"/></g></g></svg>