<svg xmlns="http://www.w3.org/2000/svg" xmlns:xlink="http://www.w3.org/1999/xlink" style="background:#fff" width="740" height="321" version="1.1" viewBox="0 0 740 321"><title>interlock-architecture-1</title><desc>Created with Sketch.</desc><defs><circle id="path-1" cx="4" cy="4" r="4"/><circle id="path-2" cx="4" cy="4" r="4"/><circle id="path-3" cx="4" cy="4" r="4"/><circle id="path-4" cx="4" cy="4" r="4"/><circle id="path-5" cx="4" cy="4" r="4"/><circle id="path-6" cx="4" cy="5" r="4"/><circle id="path-7" cx="4" cy="5" r="4"/></defs><g id="interlock-architecture-1" fill="none" fill-rule="evenodd" stroke="none" stroke-width="1"><g id="all" transform="translate(6.000000, 5.000000)"><text id="Docker-swarm-managed" fill="#E0E4E7" font-family="OpenSans-Semibold, Open Sans" font-size="10" font-weight="500"><tspan x="8" y="297">Docker swarm managed with UCP</tspan></text><g id="nodes" transform="translate(133.000000, 100.000000)"><g id="workers" transform="translate(122.000000, 0.000000)"><g id="node-4" transform="translate(248.000000, 0.000000)"><g id="ucp" transform="translate(1.000000, 112.000000)"><rect id="Rectangle-138" width="106" height="22" x="0" y="0" fill="#439FD1" rx="2"/><text id="UCP" fill="#FFF" font-family="OpenSans, Open Sans" font-size="10" font-weight="normal"><tspan x="43.695" y="15">UCP</tspan></text></g><g id="wordpress-copy" transform="translate(1.000000, 89.000000)"><rect id="Rectangle-138" width="106" height="22" x="0" y="0" fill="#00B6B5" rx="2"/><text id="interlock-proxy:80" fill="#FFF" font-family="OpenSans, Open Sans" font-size="10" font-weight="normal"><tspan x="11.344" y="15">interlock-proxy:80</tspan></text></g><g id="label"><g id="node-label"><path id="Rectangle-127" fill="#445D6E" d="M0,2.00295631 C0,0.896754086 0.897702336,0 1.99174577,0 L71,0 L71,10.6452381 C71,16.5244408 66.2312425,21.2904762 60.3513837,21.2904762 L0,21.2904762 L0,2.00295631 Z"/><text id="worker-node" fill="#FFF" font-family="OpenSans, Open Sans" font-size="8" font-weight="normal"><tspan x="6" y="14">worker node</tspan></text></g></g><rect id="node-border" width="108" height="135" x="0" y="0" stroke="#445D6E" stroke-width="2" rx="2"/></g><g id="node-3" transform="translate(124.000000, 0.000000)"><g id="ucp" transform="translate(1.000000, 112.000000)"><rect id="Rectangle-138" width="106" height="22" x="0" y="0" fill="#439FD1" rx="2"/><text id="UCP" fill="#FFF" font-family="OpenSans, Open Sans" font-size="10" font-weight="normal"><tspan x="43.695" y="15">UCP</tspan></text></g><g id="wordpress-copy" transform="translate(1.000000, 89.000000)"><rect id="Rectangle-138" width="106" height="22" x="0" y="0" fill="#00B6B5" rx="2"/><text id="interlock-proxy:80" fill="#FFF" font-family="OpenSans, Open Sans" font-size="10" font-weight="normal"><tspan x="11.344" y="15">interlock-proxy:80</tspan></text></g><g id="label"><g id="node-label"><path id="Rectangle-127" fill="#445D6E" d="M0,2.00295631 C0,0.896754086 0.897702336,0 1.99174577,0 L71,0 L71,10.6452381 C71,16.5244408 66.2312425,21.2904762 60.3513837,21.2904762 L0,21.2904762 L0,2.00295631 Z"/><text id="worker-node" fill="#FFF" font-family="OpenSans, Open Sans" font-size="8" font-weight="normal"><tspan x="6" y="14">worker node</tspan></text></g></g><rect id="node-border" width="108" height="135" x="0" y="0" stroke="#445D6E" stroke-width="2" rx="2"/></g><g id="node-2"><g id="ucp" transform="translate(1.000000, 112.000000)"><rect id="Rectangle-138" width="106" height="22" x="0" y="0" fill="#439FD1" rx="2"/><text id="UCP" fill="#FFF" font-family="OpenSans, Open Sans" font-size="10" font-weight="normal"><tspan x="43.695" y="15">UCP</tspan></text></g><g id="extension" transform="translate(1.000000, 89.000000)"><rect id="Rectangle-138" width="106" height="22" x="0" y="0" fill="#00B6B5" rx="2"/><text id="interlock-extension" fill="#FFF" font-family="OpenSans, Open Sans" font-size="10" font-weight="normal"><tspan x="8.354" y="15">interlock-extension</tspan></text></g><g id="wordpress-copy-2" transform="translate(1.000000, 66.000000)"><rect id="Rectangle-138" width="106" height="22" x="0" y="0" fill="#FFB463" rx="2"/><text id="wordpress:8000" fill="#FFF" font-family="OpenSans, Open Sans" font-size="10" font-weight="normal"><tspan x="16.039" y="15">wordpress:8000</tspan></text></g><g id="label"><g id="node-label"><path id="Rectangle-127" fill="#445D6E" d="M0,2.00295631 C0,0.896754086 0.897702336,0 1.99174577,0 L71,0 L71,10.6452381 C71,16.5244408 66.2312425,21.2904762 60.3513837,21.2904762 L0,21.2904762 L0,2.00295631 Z"/><text id="worker-node" fill="#FFF" font-family="OpenSans, Open Sans" font-size="8" font-weight="normal"><tspan x="6" y="14">worker node</tspan></text></g></g><rect id="node-border" width="108" height="135" x="0" y="0" stroke="#445D6E" stroke-width="2" rx="2"/></g></g><g id="managers"><g id="node"><g id="ucp" transform="translate(1.000000, 112.000000)"><rect id="Rectangle-138" width="106" height="22" x="0" y="0" fill="#439FD1" rx="2"/><text id="UCP" fill="#FFF" font-family="OpenSans, Open Sans" font-size="10" font-weight="normal"><tspan x="43.695" y="15">UCP</tspan></text></g><g id="interlock" transform="translate(1.000000, 89.000000)"><rect id="Rectangle-138" width="106" height="22" x="0" y="0" fill="#00B6B5" rx="2"/><text id="ucp-interlock" fill="#FFF" font-family="OpenSans, Open Sans" font-size="10" font-weight="normal"><tspan x="22.644" y="15">ucp-interlock</tspan></text></g><g id="label"><g id="node-label"><path id="Rectangle-127" fill="#445D6E" d="M0,2.00295631 C0,0.896754086 0.897702336,0 1.99174577,0 L71,0 L71,10.6452381 C71,16.5244408 66.2312425,21.2904762 60.3513837,21.2904762 L0,21.2904762 L0,2.00295631 Z"/><text id="manager-node" fill="#FFF" font-family="OpenSans, Open Sans" font-size="8" font-weight="normal"><tspan x="6" y="14">manager node</tspan></text></g></g><rect id="node-border" width="108" height="135" x="0" y="0" stroke="#445D6E" stroke-width="2" rx="2"/></g></g></g><g id="load-balancer" transform="translate(378.000000, 55.000000)"><g id="L7"><rect id="Rectangle-138" width="234" height="22" x="0" y="0" fill="#445D6E" rx="2"/><text id="your-load-balancer" fill="#FFF" font-family="OpenSans, Open Sans" font-size="10" font-weight="normal"><tspan x="73.438" y="15">your load balancer</tspan></text></g><g id="arrow" transform="translate(175.000000, 33.000000) scale(1, -1) rotate(-90.000000) translate(-175.000000, -33.000000) translate(163.000000, 29.000000)"><path id="Line" stroke="#445D6E" stroke-linecap="round" stroke-linejoin="round" stroke-width="2" d="M2,4 L24,4"/><g id="Oval"><use fill="#445D6E" fill-rule="evenodd" xlink:href="#path-1"/><circle cx="4" cy="4" r="5" stroke="#F7F8F9" stroke-width="2"/></g></g><g id="arrow" transform="translate(57.000000, 33.000000) scale(1, -1) rotate(-90.000000) translate(-57.000000, -33.000000) translate(45.000000, 29.000000)"><path id="Line" stroke="#445D6E" stroke-linecap="round" stroke-linejoin="round" stroke-width="2" d="M2,4 L24,4"/><g id="Oval"><use fill="#445D6E" fill-rule="evenodd" xlink:href="#path-2"/><circle cx="4" cy="4" r="5" stroke="#F7F8F9" stroke-width="2"/></g></g></g><path id="group" stroke="#E0E4E7" stroke-dasharray="5 5 5 5" stroke-width="2" d="M0,92.9911272 C0,91.891458 0.895288359,91 1.99262649,91 L726.007374,91 C727.107871,91 728,91.8889081 728,92.9911272 L728,304.008873 C728,305.108542 727.104712,306 726.007374,306 L1.99262649,306 C0.892129269,306 0,305.111092 0,304.008873 L0,92.9911272 Z"/><g id="user" fill="#82949E" transform="translate(420.000000, 0.000000)"><text id="http://wordpress.exa" font-family="OpenSans-Semibold, Open Sans" font-size="10" font-weight="500"><tspan x=".129" y="42">http://wordpress.example.org</tspan></text><path id="Shape" d="M73,13 C76.59125,13 79.5,10.083125 79.5,6.5 C79.5,2.90875 76.59125,0 73,0 C69.40875,0 66.5,2.90875 66.5,6.5 C66.5,10.083125 69.40875,13 73,13 L73,13 Z M73,16.25 C68.669375,16.25 60,18.419375 60,22.75 L60,26 L86,26 L86,22.75 C86,18.419375 77.330625,16.25 73,16.25 L73,16.25 Z"/></g><g id="networks" transform="translate(6.000000, 174.000000)"><g id="wordpress-net" transform="translate(351.000000, 0.000000)"><text fill="#E0E4E7" font-family="OpenSans-Semibold, Open Sans" font-size="10" font-weight="500"><tspan x="293.941" y="75">wordpress-net</tspan></text><path id="common" stroke="#E0E4E7" stroke-linecap="round" stroke-linejoin="round" stroke-width="2" d="M286.078683,72.7028593 L10.6033191,72.7028593"/><g id="arrow-3" transform="translate(253.500000, 47.000000) scale(1, -1) rotate(-90.000000) translate(-253.500000, -47.000000) translate(228.500000, 41.500000)"><g id="Oval"><use fill="#00B6B5" fill-rule="evenodd" xlink:href="#path-3"/><circle cx="4" cy="4" r="5" stroke="#F7F8F9" stroke-width="2"/></g><polyline id="Path-2" stroke="#E0E4E7" stroke-linecap="round" stroke-linejoin="round" stroke-width="2" points="49.703 10.477 4.09 10.477 4.09 4.677"/></g><g id="arrow-2" transform="translate(129.500000, 47.000000) scale(1, -1) rotate(-90.000000) translate(-129.500000, -47.000000) translate(104.500000, 41.500000)"><g id="Oval"><use fill="#00B6B5" fill-rule="evenodd" xlink:href="#path-4"/><circle cx="4" cy="4" r="5" stroke="#F7F8F9" stroke-width="2"/></g><polyline id="Path-2" stroke="#E0E4E7" stroke-linecap="round" stroke-linejoin="round" stroke-width="2" points="49.703 10.477 4.09 10.477 4.09 4.677"/></g><g id="arrow-1" transform="translate(5.500000, 36.000000) scale(1, -1) rotate(-90.000000) translate(-5.500000, -36.000000) translate(-30.500000, 30.500000)"><g id="Oval"><use fill="#FFB463" fill-rule="evenodd" xlink:href="#path-5"/><circle cx="4" cy="4" r="5" stroke="#F7F8F9" stroke-width="2"/></g><polyline id="Path-2" stroke="#E0E4E7" stroke-linecap="round" stroke-linejoin="round" stroke-width="2" points="71.703 10.477 4.09 10.477 4.09 4.677"/></g></g><g id="ucp-interlock" transform="translate(0.000000, 22.000000)"><text fill="#E0E4E7" font-family="OpenSans-Semibold, Open Sans" font-size="10" font-weight="500"><tspan x=".274" y="53">ucp-interlock</tspan></text><path id="common" stroke="#E0E4E7" stroke-linecap="round" stroke-linejoin="round" stroke-width="2" d="M244.353587,50.7028593 L70.3892056,50.7028593"/><g id="arrow-2" transform="translate(248.500000, 25.000000) scale(1, -1) rotate(-90.000000) translate(-248.500000, -25.000000) translate(223.500000, 20.500000)"><g id="Oval"><use fill="#00B6B5" fill-rule="evenodd" xlink:href="#path-6"/><circle cx="4" cy="5" r="5" stroke="#F7F8F9" stroke-width="2"/></g><polyline id="Path-2" stroke="#E0E4E7" stroke-linecap="round" stroke-linejoin="round" stroke-width="2" points="49.703 .035 4.09 .035 4.09 5.677"/></g><g id="arrow-1" transform="translate(126.500000, 25.000000) scale(1, -1) rotate(-90.000000) translate(-126.500000, -25.000000) translate(101.500000, 20.500000)"><g id="Oval"><use fill="#00B6B5" fill-rule="evenodd" xlink:href="#path-7"/><circle cx="4" cy="5" r="5" stroke="#F7F8F9" stroke-width="2"/></g><polyline id="Path-2" stroke="#E0E4E7" stroke-linecap="round" stroke-linejoin="round" stroke-width="2" points="49.703 .035 4.09 .035 4.09 5.677"/></g></g></g></g></g></svg>