<svg xmlns="http://www.w3.org/2000/svg" xmlns:xlink="http://www.w3.org/1999/xlink" width="740" height="250" version="1.1" viewBox="0 0 740 250"><title>content-cache-2</title><desc>Created with Sketch.</desc><g id="dtr-diagrams" fill="none" fill-rule="evenodd" stroke="none" stroke-width="1"><g id="content-cache-2"><text id="UCP-cluster" fill="#82949E" font-family="OpenSans-Semibold, Open Sans" font-size="10" font-weight="500"><tspan x="145.025" y="239.01">UCP cluster</tspan></text><g id="nodes" transform="translate(215.000000, 15.000000)"><g id="cache" transform="translate(53.000000, 112.000000)"><g id="node-2" transform="translate(107.000000, 0.000000)"><g id="node"><g id="node-label"><path id="Rectangle-127" fill="#445D6E" d="M0,2.00295631 C0,0.896754086 0.897702336,0 1.99174577,0 L71,0 L71,10.6452381 C71,16.5244408 66.2312425,21.2904762 60.3513837,21.2904762 L0,21.2904762 L0,2.00295631 Z"/><text id="worker-node" fill="#FFF" font-family="OpenSans, Open Sans" font-size="8" font-weight="normal"><tspan x="6" y="14">worker node</tspan></text></g></g><g id="engine" transform="translate(1.000000, 79.000000)"><rect id="Rectangle-138" width="95" height="22" x="0" y="0" fill="#1488C6" rx="2"/><text id="Docker" fill="#FFF" font-family="OpenSans, Open Sans" font-size="10" font-weight="normal"><tspan x="31.484" y="15">Docker</tspan></text></g><g id="ucp" transform="translate(1.000000, 56.000000)"><rect id="Rectangle-138" width="95" height="22" x="0" y="0" fill="#1488C6" rx="2"/><text id="UCP-agent" fill="#FFF" font-family="OpenSans, Open Sans" font-size="10" font-weight="normal"><tspan x="23.737" y="15">UCP agent</tspan></text></g><g id="dtr" transform="translate(1.000000, 33.000000)"><rect id="Rectangle-138" width="95" height="22" x="0" y="0" fill="#00B6B5" rx="2"/><text id="DTR-cache" fill="#FFF" font-family="OpenSans, Open Sans" font-size="10" font-weight="normal"><tspan x="23.784" y="15">DTR cache</tspan></text></g><rect id="node-border" width="97" height="102" x="0" y="0" stroke="#445D6E" stroke-width="2" rx="2"/></g><g id="node-1"><g id="node"><g id="node-label"><path id="Rectangle-127" fill="#445D6E" d="M0,2.00295631 C0,0.896754086 0.897702336,0 1.99174577,0 L71,0 L71,10.6452381 C71,16.5244408 66.2312425,21.2904762 60.3513837,21.2904762 L0,21.2904762 L0,2.00295631 Z"/><text id="worker-node" fill="#FFF" font-family="OpenSans, Open Sans" font-size="8" font-weight="normal"><tspan x="6" y="14">worker node</tspan></text></g></g><g id="engine" transform="translate(1.000000, 79.000000)"><rect id="Rectangle-138" width="95" height="22" x="0" y="0" fill="#1488C6" rx="2"/><text id="Docker" fill="#FFF" font-family="OpenSans, Open Sans" font-size="10" font-weight="normal"><tspan x="31.484" y="15">Docker</tspan></text></g><g id="ucp" transform="translate(1.000000, 56.000000)"><rect id="Rectangle-138" width="95" height="22" x="0" y="0" fill="#1488C6" rx="2"/><text id="UCP-agent" fill="#FFF" font-family="OpenSans, Open Sans" font-size="10" font-weight="normal"><tspan x="23.737" y="15">UCP agent</tspan></text></g><g id="dtr" transform="translate(1.000000, 33.000000)"><rect id="Rectangle-138" width="95" height="22" x="0" y="0" fill="#00B6B5" rx="2"/><text id="DTR-cache" fill="#FFF" font-family="OpenSans, Open Sans" font-size="10" font-weight="normal"><tspan x="23.784" y="15">DTR cache</tspan></text></g><rect id="node-border" width="97" height="102" x="0" y="0" stroke="#445D6E" stroke-width="2" rx="2"/></g></g><g id="dtr"><g id="node-3" transform="translate(214.000000, 0.000000)"><g id="node"><g id="node-label"><path id="Rectangle-127" fill="#445D6E" d="M0,2.00295631 C0,0.896754086 0.897702336,0 1.99174577,0 L71,0 L71,10.6452381 C71,16.5244408 66.2312425,21.2904762 60.3513837,21.2904762 L0,21.2904762 L0,2.00295631 Z"/><text id="worker-node" fill="#FFF" font-family="OpenSans, Open Sans" font-size="8" font-weight="normal"><tspan x="6" y="14">worker node</tspan></text></g></g><g id="engine" transform="translate(1.000000, 79.000000)"><rect id="Rectangle-138" width="95" height="22" x="0" y="0" fill="#1488C6" rx="2"/><text id="Docker" fill="#FFF" font-family="OpenSans, Open Sans" font-size="10" font-weight="normal"><tspan x="31.484" y="15">Docker</tspan></text></g><g id="ucp" transform="translate(1.000000, 56.000000)"><rect id="Rectangle-138" width="95" height="22" x="0" y="0" fill="#1488C6" rx="2"/><text id="UCP-agent" fill="#FFF" font-family="OpenSans, Open Sans" font-size="10" font-weight="normal"><tspan x="23.737" y="15">UCP agent</tspan></text></g><g id="dtr" transform="translate(1.000000, 33.000000)"><rect id="Rectangle-138" width="95" height="22" x="0" y="0" fill="#FFB463" rx="2"/><text id="DTR" fill="#FFF" font-family="OpenSans, Open Sans" font-size="10" font-weight="normal"><tspan x="38.498" y="15">DTR</tspan></text></g><rect id="node-border" width="97" height="102" x="0" y="0" stroke="#445D6E" stroke-width="2" rx="2"/></g><g id="node-2" transform="translate(107.000000, 0.000000)"><g id="node"><g id="node-label"><path id="Rectangle-127" fill="#445D6E" d="M0,2.00295631 C0,0.896754086 0.897702336,0 1.99174577,0 L71,0 L71,10.6452381 C71,16.5244408 66.2312425,21.2904762 60.3513837,21.2904762 L0,21.2904762 L0,2.00295631 Z"/><text id="worker-node" fill="#FFF" font-family="OpenSans, Open Sans" font-size="8" font-weight="normal"><tspan x="6" y="14">worker node</tspan></text></g></g><g id="engine" transform="translate(1.000000, 79.000000)"><rect id="Rectangle-138" width="95" height="22" x="0" y="0" fill="#1488C6" rx="2"/><text id="Docker" fill="#FFF" font-family="OpenSans, Open Sans" font-size="10" font-weight="normal"><tspan x="31.484" y="15">Docker</tspan></text></g><g id="ucp" transform="translate(1.000000, 56.000000)"><rect id="Rectangle-138" width="95" height="22" x="0" y="0" fill="#1488C6" rx="2"/><text id="UCP-agent" fill="#FFF" font-family="OpenSans, Open Sans" font-size="10" font-weight="normal"><tspan x="23.737" y="15">UCP agent</tspan></text></g><g id="dtr" transform="translate(1.000000, 33.000000)"><rect id="Rectangle-138" width="95" height="22" x="0" y="0" fill="#FFB463" rx="2"/><text id="DTR" fill="#FFF" font-family="OpenSans, Open Sans" font-size="10" font-weight="normal"><tspan x="38.498" y="15">DTR</tspan></text></g><rect id="node-border" width="97" height="102" x="0" y="0" stroke="#445D6E" stroke-width="2" rx="2"/></g><g id="node-1"><g id="node"><g id="node-label"><path id="Rectangle-127" fill="#445D6E" d="M0,2.00295631 C0,0.896754086 0.897702336,0 1.99174577,0 L71,0 L71,10.6452381 C71,16.5244408 66.2312425,21.2904762 60.3513837,21.2904762 L0,21.2904762 L0,2.00295631 Z"/><text id="worker-node" fill="#FFF" font-family="OpenSans, Open Sans" font-size="8" font-weight="normal"><tspan x="6" y="14">worker node</tspan></text></g></g><g id="engine" transform="translate(1.000000, 79.000000)"><rect id="Rectangle-138" width="95" height="22" x="0" y="0" fill="#1488C6" rx="2"/><text id="Docker" fill="#FFF" font-family="OpenSans, Open Sans" font-size="10" font-weight="normal"><tspan x="31.484" y="15">Docker</tspan></text></g><g id="ucp" transform="translate(1.000000, 56.000000)"><rect id="Rectangle-138" width="95" height="22" x="0" y="0" fill="#1488C6" rx="2"/><text id="UCP-agent" fill="#FFF" font-family="OpenSans, Open Sans" font-size="10" font-weight="normal"><tspan x="23.737" y="15">UCP agent</tspan></text></g><g id="dtr" transform="translate(1.000000, 33.000000)"><rect id="Rectangle-138" width="95" height="22" x="0" y="0" fill="#FFB463" rx="2"/><text id="DTR" fill="#FFF" font-family="OpenSans, Open Sans" font-size="10" font-weight="normal"><tspan x="38.498" y="15">DTR</tspan></text></g><rect id="node-border" width="97" height="102" x="0" y="0" stroke="#445D6E" stroke-width="2" rx="2"/></g></g></g><rect id="group" width="460" height="245" x="140" y="3" stroke="#82949E" stroke-dasharray="5 5 5 5" stroke-width="2" rx="2"/></g></g></svg>