<svg xmlns="http://www.w3.org/2000/svg" xmlns:xlink="http://www.w3.org/1999/xlink" width="740" height="383" version="1.1" viewBox="0 0 740 383"><title>sign-an-image-1</title><desc>Created with Sketch.</desc><defs><circle id="path-1" cx="4" cy="4" r="4"/><mask id="mask-2" width="12" height="12" x="-2" y="-2" maskContentUnits="userSpaceOnUse" maskUnits="objectBoundingBox"><rect width="12" height="12" x="-2" y="-2" fill="#fff"/><use fill="#000" xlink:href="#path-1"/></mask><rect id="path-3" width="172" height="67.5" x="0" y="0" rx="2"/><mask id="mask-4" width="172" height="67.5" x="0" y="0" fill="#fff" maskContentUnits="userSpaceOnUse" maskUnits="objectBoundingBox"><use xlink:href="#path-3"/></mask><circle id="path-5" cx="4" cy="4" r="4"/><mask id="mask-6" width="12" height="12" x="-2" y="-2" maskContentUnits="userSpaceOnUse" maskUnits="objectBoundingBox"><rect width="12" height="12" x="-2" y="-2" fill="#fff"/><use fill="#000" xlink:href="#path-5"/></mask><rect id="path-7" width="172" height="67.5" x="0" y="0" rx="2"/><mask id="mask-8" width="172" height="67.5" x="0" y="0" fill="#fff" maskContentUnits="userSpaceOnUse" maskUnits="objectBoundingBox"><use xlink:href="#path-7"/></mask><circle id="path-9" cx="4" cy="4" r="4"/><mask id="mask-10" width="12" height="12" x="-2" y="-2" maskContentUnits="userSpaceOnUse" maskUnits="objectBoundingBox"><rect width="12" height="12" x="-2" y="-2" fill="#fff"/><use fill="#000" xlink:href="#path-9"/></mask><rect id="path-11" width="228" height="144" x="0" y="0"/><mask id="mask-12" width="228" height="144" x="0" y="0" fill="#fff" maskContentUnits="userSpaceOnUse" maskUnits="objectBoundingBox"><use xlink:href="#path-11"/></mask></defs><g id="dtr-diagrams" fill="none" fill-rule="evenodd" stroke="none" stroke-width="1"><g id="sign-an-image-1"><g id="Group" transform="translate(53.000000, 12.000000)"><g id="left"><g id="stack" transform="translate(0.000000, 94.000000)"><text id="DTR" fill="#E0E4E7" font-family="OpenSans-Semibold, Open Sans" font-size="10" font-weight="500"><tspan x="10.822" y="172.01">DTR</tspan></text><rect id="group" width="368" height="180" x="0" y="0" stroke="#E0E4E7" stroke-dasharray="5 5 5 5" stroke-width="2" rx="2"/><g id="components" transform="translate(10.000000, 9.000000)"><g id="Group-2" transform="translate(0.000000, 109.000000)"><g id="notary" transform="translate(176.000000, 0.000000)"><rect id="Rectangle-138" width="172" height="34" x="0" y="0" fill="#1488C6" rx="2"/><text id="notary-server" fill="#FFF" font-family="OpenSans, Open Sans" font-size="14" font-weight="normal"><tspan x="42.993" y="23">notary server</tspan></text></g><g id="registry"><rect id="Rectangle-138" width="172" height="34" x="0" y="0" fill="#1488C6" rx="2"/><text fill="#FFF" font-family="OpenSans, Open Sans" font-size="14" font-weight="normal"><tspan x="61.915" y="23">registry</tspan></text></g><g id="internals" transform="translate(0.000000, 31.000000)"><g id="right" transform="translate(176.000000, 0.000000)"><g id="arrow-1" transform="translate(86.500000, 27.000000) scale(1, -1) rotate(-90.000000) translate(-86.500000, -27.000000) translate(60.000000, 23.000000)"><path id="Line" stroke="#1488C6" stroke-linecap="round" stroke-linejoin="round" stroke-width="2" d="M2,4 L52.5,4"/><g id="Oval"><use fill="#1488C6" fill-rule="evenodd" xlink:href="#path-1"/><use stroke="#FFF" stroke-width="4" mask="url(#mask-2)" xlink:href="#path-1"/></g></g><g id="box" fill="#FFF" stroke="#1488C6" stroke-width="2" transform="translate(0.000000, 48.000000)"><use id="Rectangle" mask="url(#mask-4)" xlink:href="#path-3"/></g></g><g id="left"><g id="arrow-1" transform="translate(86.500000, 27.000000) scale(1, -1) rotate(-90.000000) translate(-86.500000, -27.000000) translate(60.000000, 23.000000)"><path id="Line" stroke="#1488C6" stroke-linecap="round" stroke-linejoin="round" stroke-width="2" d="M2,4 L52.5,4"/><g id="Oval"><use fill="#1488C6" fill-rule="evenodd" xlink:href="#path-5"/><use stroke="#FFF" stroke-width="4" mask="url(#mask-6)" xlink:href="#path-5"/></g></g><g id="box" transform="translate(0.000000, 48.000000)"><use id="Rectangle" fill="#FFF" stroke="#1488C6" stroke-width="2" mask="url(#mask-8)" xlink:href="#path-7"/><text id="dev/nginx:1" fill="#637986" font-family="CourierNewPS-BoldMT, Courier New" font-size="14" font-weight="bold"><tspan x="7" y="21">dev/nginx:1</tspan></text></g></g></g></g><g id="others" fill="#82949E" transform="translate(0.000000, 38.000000)"><rect id="Rectangle-138" width="348" height="67" x="0" y="0" rx="2"/></g><g id="front-end"><rect id="Rectangle-138" width="348" height="34" x="0" y="0" fill="#1488C6" rx="2"/><text fill="#FFF" font-family="OpenSans, Open Sans" font-size="14" font-weight="normal"><tspan x="143.509" y="23">front-end</tspan></text></g></g></g><g id="user" transform="translate(130.000000, 0.000000)"><text id="&gt;-docker-push" fill="#637986" font-family="CourierNewPS-BoldMT, Courier New" font-size="14" font-weight="bold"><tspan x="0" y="47">&gt; docker push</tspan></text><path id="Shape" fill="#82949E" d="M55,13 C58.59125,13 61.5,10.083125 61.5,6.5 C61.5,2.90875 58.59125,-1.77635684e-15 55,-1.77635684e-15 C51.40875,-1.77635684e-15 48.5,2.90875 48.5,6.5 C48.5,10.083125 51.40875,13 55,13 L55,13 Z M55,16.25 C50.669375,16.25 42,18.419375 42,22.75 L42,26 L68,26 L68,22.75 C68,18.419375 59.330625,16.25 55,16.25 L55,16.25 Z"/></g></g><g id="arrow" transform="translate(381.500000, 120.000000) scale(1, -1) translate(-381.500000, -120.000000) translate(355.000000, 116.000000)"><path id="Line" stroke="#1488C6" stroke-linecap="round" stroke-linejoin="round" stroke-width="2" d="M2,4 L52.5,4"/><g id="Oval"><use fill="#1488C6" fill-rule="evenodd" xlink:href="#path-9"/><use stroke="#FFF" stroke-width="4" mask="url(#mask-10)" xlink:href="#path-9"/></g></g><g id="browser" transform="translate(407.000000, 103.000000)"><use id="chrome" fill="#FFF" stroke="#82949E" stroke-width="2" mask="url(#mask-12)" xlink:href="#path-11"/><g id="table" fill="#82949E" font-family="OpenSans, Open Sans" font-size="12" font-weight="normal" transform="translate(9.000000, 60.000000)"><g id="data" transform="translate(0.000000, 25.000000)"><text id="dave"><tspan x="145" y="13">dave.lauper</tspan></text><text id="9baa"><tspan x="61" y="13">9baa16</tspan></text><text id="1"><tspan x="0" y="13">1</tspan></text></g><g id="header"><text id="last"><tspan x="145" y="13">last pushed</tspan></text><text id="id"><tspan x="61" y="13">id</tspan></text><text id="tag"><tspan x="0" y="13">tag</tspan></text></g></g><g id="repo" transform="translate(0.000000, 26.000000)"><rect id="header" width="228" height="27" x="0" y="0" fill="#82949E"/><text id="dev/nginx" fill="#FFF" font-family="OpenSans, Open Sans" font-size="12" font-weight="normal"><tspan x="9" y="18">dev/nginx</tspan></text></g><g id="header"><path id="Line" stroke="#E0E4E7" stroke-linecap="square" d="M9.5,79.5 L217.5,79.5"/><rect width="228" height="27" x="0" y="0" fill="#1488C6"/><text id="docker-trusted-regis" fill="#FFF" font-family="OpenSans, Open Sans" font-size="12" font-weight="normal"><tspan x="9" y="18">docker trusted registry</tspan></text></g></g></g></g></g></svg>