<svg xmlns="http://www.w3.org/2000/svg" xmlns:xlink="http://www.w3.org/1999/xlink" width="740" height="350" version="1.1" viewBox="0 0 740 350"><title>architecture-4</title><desc>Created with Sketch.</desc><defs><circle id="path-1" cx="4" cy="4" r="4"/><mask id="mask-2" width="12" height="12" x="-2" y="-2" maskContentUnits="userSpaceOnUse" maskUnits="objectBoundingBox"><rect width="12" height="12" x="-2" y="-2" fill="#fff"/><use fill="#000" xlink:href="#path-1"/></mask><circle id="path-3" cx="4" cy="4" r="4"/><mask id="mask-4" width="12" height="12" x="-2" y="-2" maskContentUnits="userSpaceOnUse" maskUnits="objectBoundingBox"><rect width="12" height="12" x="-2" y="-2" fill="#fff"/><use fill="#000" xlink:href="#path-3"/></mask><circle id="path-5" cx="4" cy="4" r="4"/><mask id="mask-6" width="12" height="12" x="-2" y="-2" maskContentUnits="userSpaceOnUse" maskUnits="objectBoundingBox"><rect width="12" height="12" x="-2" y="-2" fill="#fff"/><use fill="#000" xlink:href="#path-5"/></mask><circle id="path-7" cx="4" cy="4" r="4"/><mask id="mask-8" width="12" height="12" x="-2" y="-2" maskContentUnits="userSpaceOnUse" maskUnits="objectBoundingBox"><rect width="12" height="12" x="-2" y="-2" fill="#fff"/><use fill="#000" xlink:href="#path-7"/></mask><circle id="path-9" cx="4" cy="4" r="4"/><mask id="mask-10" width="12" height="12" x="-2" y="-2" maskContentUnits="userSpaceOnUse" maskUnits="objectBoundingBox"><rect width="12" height="12" x="-2" y="-2" fill="#fff"/><use fill="#000" xlink:href="#path-9"/></mask><circle id="path-11" cx="4" cy="4" r="4"/><mask id="mask-12" width="12" height="12" x="-2" y="-2" maskContentUnits="userSpaceOnUse" maskUnits="objectBoundingBox"><rect width="12" height="12" x="-2" y="-2" fill="#fff"/><use fill="#000" xlink:href="#path-11"/></mask></defs><g id="dtr-diagrams" fill="none" fill-rule="evenodd" stroke="none" stroke-width="1"><g id="architecture-4"><g id="ddc" transform="translate(30.000000, 56.000000)"><g id="swarm-group" transform="translate(0.000000, 42.000000)"><text id="Docker-swarm" fill="#E0E4E7" font-family="OpenSans-Semibold, Open Sans" font-size="10" font-weight="500"><tspan x="15.822" y="236.01">Docker swarm</tspan></text><rect id="group" width="703" height="245" x="0" y="0" stroke="#E0E4E7" stroke-dasharray="5 5 5 5" stroke-width="2" rx="2"/></g><g id="load-balancers" transform="translate(23.000000, 0.000000)"><g id="right" transform="translate(347.000000, 0.000000)"><g id="main"><rect id="Rectangle-138" width="309" height="22" x="0" y="0" fill="#445D6E" rx="2"/><text id="your-load-balancer" fill="#FFF" font-family="OpenSans, Open Sans" font-size="10" font-weight="normal"><tspan x="111.438" y="15">your load balancer</tspan></text></g><g id="arrows" transform="translate(43.000000, 21.000000)"><g id="arrow-copy-3" transform="translate(218.500000, 17.000000) scale(1, -1) rotate(-90.000000) translate(-218.500000, -17.000000) translate(202.000000, 13.000000)"><path id="Line" stroke="#445D6E" stroke-linecap="round" stroke-linejoin="round" stroke-width="2" d="M2,4 L33,4"/><g id="Oval"><use fill="#445D6E" fill-rule="evenodd" xlink:href="#path-1"/><use stroke="#F7F8F9" stroke-width="4" mask="url(#mask-2)" xlink:href="#path-1"/></g></g><g id="arrow-copy" transform="translate(111.500000, 17.000000) scale(1, -1) rotate(-90.000000) translate(-111.500000, -17.000000) translate(95.000000, 13.000000)"><path id="Line" stroke="#445D6E" stroke-linecap="round" stroke-linejoin="round" stroke-width="2" d="M2,4 L33,4"/><g id="Oval"><use fill="#445D6E" fill-rule="evenodd" xlink:href="#path-3"/><use stroke="#F7F8F9" stroke-width="4" mask="url(#mask-4)" xlink:href="#path-3"/></g></g><g id="arrow-copy-2" transform="translate(4.500000, 17.000000) scale(1, -1) rotate(-90.000000) translate(-4.500000, -17.000000) translate(-12.000000, 13.000000)"><path id="Line" stroke="#445D6E" stroke-linecap="round" stroke-linejoin="round" stroke-width="2" d="M2,4 L33,4"/><g id="Oval"><use fill="#445D6E" fill-rule="evenodd" xlink:href="#path-5"/><use stroke="#F7F8F9" stroke-width="4" mask="url(#mask-6)" xlink:href="#path-5"/></g></g></g></g><g id="left"><g id="main"><rect id="Rectangle-138" width="309" height="22" x="0" y="0" fill="#445D6E" rx="2"/><text id="your-load-balancer" fill="#FFF" font-family="OpenSans, Open Sans" font-size="10" font-weight="normal"><tspan x="111.438" y="15">your load balancer</tspan></text></g><g id="arrows" transform="translate(43.000000, 21.000000)"><g id="arrow-copy-3" transform="translate(218.500000, 17.000000) scale(1, -1) rotate(-90.000000) translate(-218.500000, -17.000000) translate(202.000000, 13.000000)"><path id="Line" stroke="#445D6E" stroke-linecap="round" stroke-linejoin="round" stroke-width="2" d="M2,4 L33,4"/><g id="Oval"><use fill="#445D6E" fill-rule="evenodd" xlink:href="#path-7"/><use stroke="#F7F8F9" stroke-width="4" mask="url(#mask-8)" xlink:href="#path-7"/></g></g><g id="arrow-copy" transform="translate(111.500000, 17.000000) scale(1, -1) rotate(-90.000000) translate(-111.500000, -17.000000) translate(95.000000, 13.000000)"><path id="Line" stroke="#445D6E" stroke-linecap="round" stroke-linejoin="round" stroke-width="2" d="M2,4 L33,4"/><g id="Oval"><use fill="#445D6E" fill-rule="evenodd" xlink:href="#path-9"/><use stroke="#F7F8F9" stroke-width="4" mask="url(#mask-10)" xlink:href="#path-9"/></g></g><g id="arrow-copy-2" transform="translate(4.500000, 17.000000) scale(1, -1) rotate(-90.000000) translate(-4.500000, -17.000000) translate(-12.000000, 13.000000)"><path id="Line" stroke="#445D6E" stroke-linecap="round" stroke-linejoin="round" stroke-width="2" d="M2,4 L33,4"/><g id="Oval"><use fill="#445D6E" fill-rule="evenodd" xlink:href="#path-11"/><use stroke="#F7F8F9" stroke-width="4" mask="url(#mask-12)" xlink:href="#path-11"/></g></g></g></g></g><g id="swam" transform="translate(22.000000, 54.000000)"><g id="nodes"><g id="workers" transform="translate(216.000000, 118.000000)"><g id="node-1"><g id="node"><g id="node-label"><path id="Rectangle-127" fill="#E0E4E7" d="M0,2.00295631 C0,0.896754086 0.897702336,0 1.99174577,0 L71,0 L71,10.6452381 C71,16.5244408 66.2312425,21.2904762 60.3513837,21.2904762 L0,21.2904762 L0,2.00295631 Z"/><text id="worker-node" fill="#FFF" font-family="OpenSans, Open Sans" font-size="8" font-weight="normal"><tspan x="6" y="14">worker node</tspan></text></g></g><g id="engine" transform="translate(1.000000, 79.000000)"><rect id="Rectangle-138" width="95" height="22" x="0" y="0" fill="#A1CFE8" rx="2"/><text id="CS-Docker-Engine" fill="#FFF" font-family="OpenSans, Open Sans" font-size="10" font-weight="normal"><tspan x="7.26" y="15">CS Docker Engine</tspan></text></g><g id="ucp" transform="translate(1.000000, 56.000000)"><rect id="Rectangle-138" width="95" height="22" x="0" y="0" fill="#A1CFE8" rx="2"/><text id="UCP-worker" fill="#FFF" font-family="OpenSans, Open Sans" font-size="10" font-weight="normal"><tspan x="20.476" y="15">UCP worker</tspan></text></g><rect id="node-border" width="97" height="102" x="0" y="0" stroke="#E0E4E7" stroke-width="2" rx="2"/></g><g id="node-1-copy-3" transform="translate(107.000000, 0.000000)"><g id="node"><g id="node-label"><path id="Rectangle-127" fill="#E0E4E7" d="M0,2.00295631 C0,0.896754086 0.897702336,0 1.99174577,0 L71,0 L71,10.6452381 C71,16.5244408 66.2312425,21.2904762 60.3513837,21.2904762 L0,21.2904762 L0,2.00295631 Z"/><text id="worker-node" fill="#FFF" font-family="OpenSans, Open Sans" font-size="8" font-weight="normal"><tspan x="6" y="14">worker node</tspan></text></g></g><g id="engine" transform="translate(1.000000, 79.000000)"><rect id="Rectangle-138" width="95" height="22" x="0" y="0" fill="#A1CFE8" rx="2"/><text id="CS-Docker-Engine" fill="#FFF" font-family="OpenSans, Open Sans" font-size="10" font-weight="normal"><tspan x="7.26" y="15">CS Docker Engine</tspan></text></g><g id="ucp" transform="translate(1.000000, 56.000000)"><rect id="Rectangle-138" width="95" height="22" x="0" y="0" fill="#A1CFE8" rx="2"/><text id="UCP-worker" fill="#FFF" font-family="OpenSans, Open Sans" font-size="10" font-weight="normal"><tspan x="20.476" y="15">UCP worker</tspan></text></g><rect id="node-border" width="97" height="102" x="0" y="0" stroke="#E0E4E7" stroke-width="2" rx="2"/></g></g><g id="workers-dtr" transform="translate(347.000000, 0.000000)"><g id="node-1-copy-4"><g id="node"><g id="node-label"><path id="Rectangle-127" fill="#445D6E" d="M0,2.00295631 C0,0.896754086 0.897702336,0 1.99174577,0 L71,0 L71,10.6452381 C71,16.5244408 66.2312425,21.2904762 60.3513837,21.2904762 L0,21.2904762 L0,2.00295631 Z"/><text id="worker-node" fill="#FFF" font-family="OpenSans, Open Sans" font-size="8" font-weight="normal"><tspan x="6" y="14">worker node</tspan></text></g></g><g id="engine" transform="translate(1.000000, 79.000000)"><rect id="Rectangle-138" width="95" height="22" x="0" y="0" fill="#1488C6" rx="2"/><text id="CS-Docker-Engine" fill="#FFF" font-family="OpenSans, Open Sans" font-size="10" font-weight="normal"><tspan x="7.26" y="15">CS Docker Engine</tspan></text></g><g id="ucp" transform="translate(1.000000, 56.000000)"><rect id="Rectangle-138" width="95" height="22" x="0" y="0" fill="#1488C6" rx="2"/><text id="UCP-worker" fill="#FFF" font-family="OpenSans, Open Sans" font-size="10" font-weight="normal"><tspan x="20.476" y="15">UCP worker</tspan></text></g><g id="ucp-copy" transform="translate(1.000000, 33.000000)"><rect id="Rectangle-138" width="95" height="22" x="0" y="0" fill="#FFB463" rx="2"/><text id="DTR" fill="#FFF" font-family="OpenSans, Open Sans" font-size="10" font-weight="normal"><tspan x="38.498" y="15">DTR</tspan></text></g><rect id="node-border" width="97" height="102" x="0" y="0" stroke="#445D6E" stroke-width="2" rx="2"/></g><g id="node-1-copy-5" transform="translate(107.000000, 0.000000)"><g id="node"><g id="node-label"><path id="Rectangle-127" fill="#445D6E" d="M0,2.00295631 C0,0.896754086 0.897702336,0 1.99174577,0 L71,0 L71,10.6452381 C71,16.5244408 66.2312425,21.2904762 60.3513837,21.2904762 L0,21.2904762 L0,2.00295631 Z"/><text id="worker-node" fill="#FFF" font-family="OpenSans, Open Sans" font-size="8" font-weight="normal"><tspan x="6" y="14">worker node</tspan></text></g></g><g id="engine" transform="translate(1.000000, 79.000000)"><rect id="Rectangle-138" width="95" height="22" x="0" y="0" fill="#1488C6" rx="2"/><text id="CS-Docker-Engine" fill="#FFF" font-family="OpenSans, Open Sans" font-size="10" font-weight="normal"><tspan x="7.26" y="15">CS Docker Engine</tspan></text></g><g id="ucp" transform="translate(1.000000, 56.000000)"><rect id="Rectangle-138" width="95" height="22" x="0" y="0" fill="#1488C6" rx="2"/><text id="UCP-worker" fill="#FFF" font-family="OpenSans, Open Sans" font-size="10" font-weight="normal"><tspan x="20.476" y="15">UCP worker</tspan></text></g><g id="ucp-copy" transform="translate(1.000000, 33.000000)"><rect id="Rectangle-138" width="95" height="22" x="0" y="0" fill="#FFB463" rx="2"/><text id="DTR" fill="#FFF" font-family="OpenSans, Open Sans" font-size="10" font-weight="normal"><tspan x="38.498" y="15">DTR</tspan></text></g><rect id="node-border" width="97" height="102" x="0" y="0" stroke="#445D6E" stroke-width="2" rx="2"/></g><g id="node-1-copy-6" transform="translate(214.000000, 0.000000)"><g id="node"><g id="node-label"><path id="Rectangle-127" fill="#445D6E" d="M0,2.00295631 C0,0.896754086 0.897702336,0 1.99174577,0 L71,0 L71,10.6452381 C71,16.5244408 66.2312425,21.2904762 60.3513837,21.2904762 L0,21.2904762 L0,2.00295631 Z"/><text id="worker-node" fill="#FFF" font-family="OpenSans, Open Sans" font-size="8" font-weight="normal"><tspan x="6" y="14">worker node</tspan></text></g></g><g id="engine" transform="translate(1.000000, 79.000000)"><rect id="Rectangle-138" width="95" height="22" x="0" y="0" fill="#1488C6" rx="2"/><text id="CS-Docker-Engine" fill="#FFF" font-family="OpenSans, Open Sans" font-size="10" font-weight="normal"><tspan x="7.26" y="15">CS Docker Engine</tspan></text></g><g id="ucp" transform="translate(1.000000, 56.000000)"><rect id="Rectangle-138" width="95" height="22" x="0" y="0" fill="#1488C6" rx="2"/><text id="UCP-worker" fill="#FFF" font-family="OpenSans, Open Sans" font-size="10" font-weight="normal"><tspan x="20.476" y="15">UCP worker</tspan></text></g><g id="ucp-copy" transform="translate(1.000000, 33.000000)"><rect id="Rectangle-138" width="95" height="22" x="0" y="0" fill="#FFB463" rx="2"/><text id="DTR" fill="#FFF" font-family="OpenSans, Open Sans" font-size="10" font-weight="normal"><tspan x="38.498" y="15">DTR</tspan></text></g><rect id="node-border" width="97" height="102" x="0" y="0" stroke="#445D6E" stroke-width="2" rx="2"/></g></g><g id="managers-ucp"><g id="node-1"><g id="node"><g id="node-label"><path id="Rectangle-127" fill="#445D6E" d="M0,2.00295631 C0,0.896754086 0.897702336,0 1.99174577,0 L71,0 L71,10.6452381 C71,16.5244408 66.2312425,21.2904762 60.3513837,21.2904762 L0,21.2904762 L0,2.00295631 Z"/><text id="manager-node" fill="#FFF" font-family="OpenSans, Open Sans" font-size="8" font-weight="normal"><tspan x="6" y="14">manager node</tspan></text></g></g><g id="engine" transform="translate(1.000000, 79.000000)"><rect id="Rectangle-138" width="95" height="22" x="0" y="0" fill="#1488C6" rx="2"/><text id="CS-Docker-Engine" fill="#FFF" font-family="OpenSans, Open Sans" font-size="10" font-weight="normal"><tspan x="7.26" y="15">CS Docker Engine</tspan></text></g><g id="ucp" transform="translate(1.000000, 56.000000)"><rect id="Rectangle-138" width="95" height="22" x="0" y="0" fill="#1488C6" rx="2"/><text id="UCP-manager" fill="#FFF" font-family="OpenSans, Open Sans" font-size="10" font-weight="normal"><tspan x="16.03" y="15">UCP manager</tspan></text></g><rect id="node-border" width="97" height="102" x="0" y="0" stroke="#445D6E" stroke-width="2" rx="2"/></g><g id="node-1-copy" transform="translate(107.000000, 0.000000)"><g id="node"><g id="node-label"><path id="Rectangle-127" fill="#445D6E" d="M0,2.00295631 C0,0.896754086 0.897702336,0 1.99174577,0 L71,0 L71,10.6452381 C71,16.5244408 66.2312425,21.2904762 60.3513837,21.2904762 L0,21.2904762 L0,2.00295631 Z"/><text id="manager-node" fill="#FFF" font-family="OpenSans, Open Sans" font-size="8" font-weight="normal"><tspan x="6" y="14">manager node</tspan></text></g></g><g id="engine" transform="translate(1.000000, 79.000000)"><rect id="Rectangle-138" width="95" height="22" x="0" y="0" fill="#1488C6" rx="2"/><text id="CS-Docker-Engine" fill="#FFF" font-family="OpenSans, Open Sans" font-size="10" font-weight="normal"><tspan x="7.26" y="15">CS Docker Engine</tspan></text></g><g id="ucp" transform="translate(1.000000, 56.000000)"><rect id="Rectangle-138" width="95" height="22" x="0" y="0" fill="#1488C6" rx="2"/><text id="UCP-manager" fill="#FFF" font-family="OpenSans, Open Sans" font-size="10" font-weight="normal"><tspan x="16.03" y="15">UCP manager</tspan></text></g><rect id="node-border" width="97" height="102" x="0" y="0" stroke="#445D6E" stroke-width="2" rx="2"/></g><g id="node-1-copy-2" transform="translate(214.000000, 0.000000)"><g id="node"><g id="node-label"><path id="Rectangle-127" fill="#445D6E" d="M0,2.00295631 C0,0.896754086 0.897702336,0 1.99174577,0 L71,0 L71,10.6452381 C71,16.5244408 66.2312425,21.2904762 60.3513837,21.2904762 L0,21.2904762 L0,2.00295631 Z"/><text id="manager-node" fill="#FFF" font-family="OpenSans, Open Sans" font-size="8" font-weight="normal"><tspan x="6" y="14">manager node</tspan></text></g></g><g id="engine" transform="translate(1.000000, 79.000000)"><rect id="Rectangle-138" width="95" height="22" x="0" y="0" fill="#1488C6" rx="2"/><text id="CS-Docker-Engine" fill="#FFF" font-family="OpenSans, Open Sans" font-size="10" font-weight="normal"><tspan x="7.26" y="15">CS Docker Engine</tspan></text></g><g id="ucp" transform="translate(1.000000, 56.000000)"><rect id="Rectangle-138" width="95" height="22" x="0" y="0" fill="#1488C6" rx="2"/><text id="UCP-manager" fill="#FFF" font-family="OpenSans, Open Sans" font-size="10" font-weight="normal"><tspan x="16.03" y="15">UCP manager</tspan></text></g><rect id="node-border" width="97" height="102" x="0" y="0" stroke="#445D6E" stroke-width="2" rx="2"/></g></g></g></g></g><g id="users" fill="#82949E" transform="translate(174.000000, 5.000000)"><g id="right" transform="translate(347.000000, 0.000000)"><g id="user"><text id="UI" font-family="OpenSans, Open Sans" font-size="12" font-weight="normal"><tspan x="7" y="41">UI</tspan></text><path id="Shape" d="M13,13 C16.59125,13 19.5,10.083125 19.5,6.5 C19.5,2.90875 16.59125,0 13,0 C9.40875,0 6.5,2.90875 6.5,6.5 C6.5,10.083125 9.40875,13 13,13 L13,13 Z M13,16.25 C8.669375,16.25 0,18.419375 0,22.75 L0,26 L26,26 L26,22.75 C26,18.419375 17.330625,16.25 13,16.25 L13,16.25 Z"/></g><g id="user-copy" transform="translate(42.000000, 0.000000)"><text id="CLI" font-family="OpenSans, Open Sans" font-size="12" font-weight="normal"><tspan x="4" y="41">CLI</tspan></text><path id="Shape" d="M13,13 C16.59125,13 19.5,10.083125 19.5,6.5 C19.5,2.90875 16.59125,0 13,0 C9.40875,0 6.5,2.90875 6.5,6.5 C6.5,10.083125 9.40875,13 13,13 L13,13 Z M13,16.25 C8.669375,16.25 0,18.419375 0,22.75 L0,26 L26,26 L26,22.75 C26,18.419375 17.330625,16.25 13,16.25 L13,16.25 Z"/></g></g><g id="left"><g id="user"><text id="UI" font-family="OpenSans, Open Sans" font-size="12" font-weight="normal"><tspan x="7" y="41">UI</tspan></text><path id="Shape" d="M13,13 C16.59125,13 19.5,10.083125 19.5,6.5 C19.5,2.90875 16.59125,0 13,0 C9.40875,0 6.5,2.90875 6.5,6.5 C6.5,10.083125 9.40875,13 13,13 L13,13 Z M13,16.25 C8.669375,16.25 0,18.419375 0,22.75 L0,26 L26,26 L26,22.75 C26,18.419375 17.330625,16.25 13,16.25 L13,16.25 Z"/></g><g id="user-copy" transform="translate(42.000000, 0.000000)"><text id="CLI" font-family="OpenSans, Open Sans" font-size="12" font-weight="normal"><tspan x="4" y="41">CLI</tspan></text><path id="Shape" d="M13,13 C16.59125,13 19.5,10.083125 19.5,6.5 C19.5,2.90875 16.59125,0 13,0 C9.40875,0 6.5,2.90875 6.5,6.5 C6.5,10.083125 9.40875,13 13,13 L13,13 Z M13,16.25 C8.669375,16.25 0,18.419375 0,22.75 L0,26 L26,26 L26,22.75 C26,18.419375 17.330625,16.25 13,16.25 L13,16.25 Z"/></g></g></g></g></g></svg>