<svg xmlns="http://www.w3.org/2000/svg" xmlns:xlink="http://www.w3.org/1999/xlink" width="740" height="250" version="1.1" viewBox="0 0 740 250"><title>troubleshoot-batch-jobs</title><desc>Created with Sketch.</desc><defs><circle id="path-1" cx="4" cy="4" r="4"/><mask id="mask-2" width="12" height="12" x="-2" y="-2" maskContentUnits="userSpaceOnUse" maskUnits="objectBoundingBox"><rect width="12" height="12" x="-2" y="-2" fill="#fff"/><use fill="#000" xlink:href="#path-1"/></mask><circle id="path-3" cx="4" cy="4" r="4"/><mask id="mask-4" width="12" height="12" x="-2" y="-2" maskContentUnits="userSpaceOnUse" maskUnits="objectBoundingBox"><rect width="12" height="12" x="-2" y="-2" fill="#fff"/><use fill="#000" xlink:href="#path-3"/></mask><circle id="path-5" cx="4" cy="4" r="4"/><mask id="mask-6" width="12" height="12" x="-2" y="-2" maskContentUnits="userSpaceOnUse" maskUnits="objectBoundingBox"><rect width="12" height="12" x="-2" y="-2" fill="#fff"/><use fill="#000" xlink:href="#path-5"/></mask><rect id="path-7" width="63" height="22" x="0" y="0" rx="2"/><filter id="filter-8" width="200%" height="200%" x="-50%" y="-50%" filterUnits="objectBoundingBox"><feOffset dx="1" dy="1" in="SourceAlpha" result="shadowOffsetOuter1"/><feGaussianBlur in="shadowOffsetOuter1" result="shadowBlurOuter1" stdDeviation="2.5"/><feColorMatrix in="shadowBlurOuter1" type="matrix" values="0 0 0 0 0 0 0 0 0 0 0 0 0 0 0 0 0 0 0.5 0"/></filter><rect id="path-9" width="63" height="22" x="0" y="0" rx="2"/><filter id="filter-10" width="200%" height="200%" x="-50%" y="-50%" filterUnits="objectBoundingBox"><feOffset dx="1" dy="1" in="SourceAlpha" result="shadowOffsetOuter1"/><feGaussianBlur in="shadowOffsetOuter1" result="shadowBlurOuter1" stdDeviation="2.5"/><feColorMatrix in="shadowBlurOuter1" type="matrix" values="0 0 0 0 0 0 0 0 0 0 0 0 0 0 0 0 0 0 0.5 0"/></filter><rect id="path-11" width="63" height="22" x="0" y="0" rx="2"/><filter id="filter-12" width="200%" height="200%" x="-50%" y="-50%" filterUnits="objectBoundingBox"><feOffset dx="1" dy="1" in="SourceAlpha" result="shadowOffsetOuter1"/><feGaussianBlur in="shadowOffsetOuter1" result="shadowBlurOuter1" stdDeviation="2.5"/><feColorMatrix in="shadowBlurOuter1" type="matrix" values="0 0 0 0 0 0 0 0 0 0 0 0 0 0 0 0 0 0 0.5 0"/></filter></defs><g id="dtr-diagrams" fill="none" fill-rule="evenodd" stroke="none" stroke-width="1"><g id="troubleshoot-batch-jobs"><g id="group" transform="translate(154.000000, 3.000000)"><g id="dtr"><text id="DTR-cluster" fill="#82949E" font-family="OpenSans-Semibold, Open Sans" font-size="10" font-weight="500"><tspan x="7.025" y="236.01">DTR cluster</tspan></text><g id="network" transform="translate(33.000000, 178.000000)"><rect id="Rectangle-138" width="366" height="22" x="0" y="0" fill="#439FD1" rx="2"/><text id="job-queue" fill="#FFF" font-family="OpenSans, Open Sans" font-size="10" font-weight="normal"><tspan x="160.041" y="15">job queue</tspan></text><g id="work" fill="#FFF" transform="translate(6.000000, 5.000000)"><rect id="Rectangle-Copy-5" width="12" height="12" x="70" y="0" fill-opacity=".05"/><rect id="Rectangle-Copy-4" width="12" height="12" x="56" y="0" fill-opacity=".2"/><rect id="Rectangle-Copy-3" width="12" height="12" x="42" y="0" fill-opacity=".4"/><rect id="Rectangle-Copy-2" width="12" height="12" x="28" y="0" fill-opacity=".6"/><rect id="Rectangle-Copy" width="12" height="12" x="14" y="0" fill-opacity=".8"/><rect id="Rectangle" width="12" height="12" x="0" y="0"/></g></g><g id="arrows" transform="translate(104.000000, 147.000000)"><g id="arrow-copy-2" transform="translate(218.500000, 17.000000) rotate(-90.000000) translate(-218.500000, -17.000000) translate(202.000000, 13.000000)"><path id="Line" stroke="#439FD1" stroke-linecap="round" stroke-linejoin="round" stroke-width="2" d="M2,4 L33,4"/><g id="Oval"><use fill="#439FD1" fill-rule="evenodd" xlink:href="#path-1"/><use stroke="#F7F8F9" stroke-width="4" mask="url(#mask-2)" xlink:href="#path-1"/></g></g><g id="arrow-copy-3" transform="translate(111.500000, 17.000000) rotate(-90.000000) translate(-111.500000, -17.000000) translate(95.000000, 13.000000)"><path id="Line" stroke="#439FD1" stroke-linecap="round" stroke-linejoin="round" stroke-width="2" d="M2,4 L33,4"/><g id="Oval"><use fill="#439FD1" fill-rule="evenodd" xlink:href="#path-3"/><use stroke="#F7F8F9" stroke-width="4" mask="url(#mask-4)" xlink:href="#path-3"/></g></g><g id="arrow-copy-4" transform="translate(4.500000, 17.000000) rotate(-90.000000) translate(-4.500000, -17.000000) translate(-12.000000, 13.000000)"><path id="Line" stroke="#439FD1" stroke-linecap="round" stroke-linejoin="round" stroke-width="2" d="M2,4 L33,4"/><g id="Oval"><use fill="#439FD1" fill-rule="evenodd" xlink:href="#path-5"/><use stroke="#F7F8F9" stroke-width="4" mask="url(#mask-6)" xlink:href="#path-5"/></g></g></g><g id="nodes" transform="translate(59.000000, 45.000000)"><g id="node-3" transform="translate(216.000000, 0.000000)"><g id="node" transform="translate(1.000000, 0.000000)"><g id="node-label"><path id="Rectangle-127" fill="#445D6E" d="M0,2.00295631 C0,0.896754086 0.897702336,0 1.99174577,0 L71,0 L71,10.6452381 C71,16.5244408 66.2312425,21.2904762 60.3513837,21.2904762 L0,21.2904762 L0,2.00295631 Z"/><text id="worker-node" fill="#FFF" font-family="OpenSans, Open Sans" font-size="8" font-weight="normal"><tspan x="6" y="14">worker node</tspan></text></g></g><g id="engine" transform="translate(2.000000, 43.000000)"><rect id="Rectangle-138" width="95" height="58" x="0" y="0" fill="#1488C6" rx="2"/><text id="DTR" fill="#FFF" font-family="OpenSans, Open Sans" font-size="10" font-weight="normal"><tspan x="38.498" y="51">DTR</tspan></text></g><g id="dtr" transform="translate(0.000000, 43.000000)"><g id="Rectangle-138"><use fill="#000" fill-opacity="1" filter="url(#filter-8)" xlink:href="#path-7"/><use fill="#439FD1" fill-rule="evenodd" xlink:href="#path-7"/></g><text id="Job-runner" fill="#FFF" font-family="OpenSans, Open Sans" font-size="10" font-weight="normal"><tspan x="7.188" y="15">Job runner</tspan></text></g><rect id="node-border" width="97" height="102" x="1" y="0" stroke="#445D6E" stroke-width="2" rx="2"/></g><g id="node-2" transform="translate(108.000000, 0.000000)"><g id="node" transform="translate(1.000000, 0.000000)"><g id="node-label"><path id="Rectangle-127" fill="#445D6E" d="M0,2.00295631 C0,0.896754086 0.897702336,0 1.99174577,0 L71,0 L71,10.6452381 C71,16.5244408 66.2312425,21.2904762 60.3513837,21.2904762 L0,21.2904762 L0,2.00295631 Z"/><text id="worker-node" fill="#FFF" font-family="OpenSans, Open Sans" font-size="8" font-weight="normal"><tspan x="6" y="14">worker node</tspan></text></g></g><g id="engine" transform="translate(2.000000, 43.000000)"><rect id="Rectangle-138" width="95" height="58" x="0" y="0" fill="#1488C6" rx="2"/><text id="DTR" fill="#FFF" font-family="OpenSans, Open Sans" font-size="10" font-weight="normal"><tspan x="38.498" y="51">DTR</tspan></text></g><g id="dtr" transform="translate(0.000000, 43.000000)"><g id="Rectangle-138"><use fill="#000" fill-opacity="1" filter="url(#filter-10)" xlink:href="#path-9"/><use fill="#439FD1" fill-rule="evenodd" xlink:href="#path-9"/></g><text id="Job-runner" fill="#FFF" font-family="OpenSans, Open Sans" font-size="10" font-weight="normal"><tspan x="7.188" y="15">Job runner</tspan></text></g><rect id="node-border" width="97" height="102" x="1" y="0" stroke="#445D6E" stroke-width="2" rx="2"/></g><g id="node-1"><g id="node" transform="translate(1.000000, 0.000000)"><g id="node-label"><path id="Rectangle-127" fill="#445D6E" d="M0,2.00295631 C0,0.896754086 0.897702336,0 1.99174577,0 L71,0 L71,10.6452381 C71,16.5244408 66.2312425,21.2904762 60.3513837,21.2904762 L0,21.2904762 L0,2.00295631 Z"/><text id="worker-node" fill="#FFF" font-family="OpenSans, Open Sans" font-size="8" font-weight="normal"><tspan x="6" y="14">worker node</tspan></text></g></g><g id="engine" transform="translate(2.000000, 43.000000)"><rect id="Rectangle-138" width="95" height="58" x="0" y="0" fill="#1488C6" rx="2"/><text id="DTR" fill="#FFF" font-family="OpenSans, Open Sans" font-size="10" font-weight="normal"><tspan x="38.498" y="51">DTR</tspan></text></g><g id="dtr" transform="translate(0.000000, 43.000000)"><g id="Rectangle-138"><use fill="#000" fill-opacity="1" filter="url(#filter-12)" xlink:href="#path-11"/><use fill="#439FD1" fill-rule="evenodd" xlink:href="#path-11"/></g><text id="Job-runner" fill="#FFF" font-family="OpenSans, Open Sans" font-size="10" font-weight="normal"><tspan x="7.188" y="15">Job runner</tspan></text></g><rect id="node-border" width="97" height="102" x="1" y="0" stroke="#445D6E" stroke-width="2" rx="2"/></g></g><rect id="group" width="433" height="245" x="0" y="0" stroke="#82949E" stroke-dasharray="5 5 5 5" stroke-width="2" rx="2"/></g></g></g></g></svg>