<svg xmlns="http://www.w3.org/2000/svg" xmlns:xlink="http://www.w3.org/1999/xlink" width="740" height="178" version="1.1" viewBox="0 0 740 178"><title>content-trust-3</title><desc>Created with Sketch.</desc><defs><circle id="path-1" cx="4" cy="4" r="4"/><mask id="mask-2" width="12" height="12" x="-2" y="-2" maskContentUnits="userSpaceOnUse" maskUnits="objectBoundingBox"><rect width="12" height="12" x="-2" y="-2" fill="#fff"/><use fill="#000" xlink:href="#path-1"/></mask><circle id="path-3" cx="4" cy="4" r="4"/><mask id="mask-4" width="12" height="12" x="-2" y="-2" maskContentUnits="userSpaceOnUse" maskUnits="objectBoundingBox"><rect width="12" height="12" x="-2" y="-2" fill="#fff"/><use fill="#000" xlink:href="#path-3"/></mask><rect id="path-5" width="228" height="144" x="0" y="0"/><mask id="mask-6" width="228" height="144" x="0" y="0" fill="#fff" maskContentUnits="userSpaceOnUse" maskUnits="objectBoundingBox"><use xlink:href="#path-5"/></mask></defs><g id="dtr-diagrams" fill="none" fill-rule="evenodd" stroke="none" stroke-width="1"><g id="content-trust-3"><g id="Group" transform="translate(14.000000, 17.000000)"><g id="user" transform="translate(0.000000, 47.000000)"><text id="&gt;-docker-service-cre" fill="#637986" font-family="CourierNewPS-BoldMT, Courier New" font-size="12" font-weight="bold" line-spacing="16"><tspan x="0" y="46">&gt; docker service create \</tspan> <tspan x="0" y="62"> dtr.example.org/dev/nginx:1</tspan></text><path id="Shape" fill="#82949E" d="M90,13 C93.59125,13 96.5,10.083125 96.5,6.5 C96.5,2.90875 93.59125,-1.77635684e-15 90,-1.77635684e-15 C86.40875,-1.77635684e-15 83.5,2.90875 83.5,6.5 C83.5,10.083125 86.40875,13 90,13 L90,13 Z M90,16.25 C85.669375,16.25 77,18.419375 77,22.75 L77,26 L103,26 L103,22.75 C103,18.419375 94.330625,16.25 90,16.25 L90,16.25 Z"/></g><g id="arrow" transform="translate(238.500000, 72.000000) scale(1, -1) translate(-238.500000, -72.000000) translate(216.000000, 68.000000)"><path id="Line" stroke="#1488C6" stroke-linecap="round" stroke-linejoin="round" stroke-width="2" d="M2,4 L45,4"/><g id="Oval"><use fill="#1488C6" fill-rule="evenodd" xlink:href="#path-1"/><use stroke="#FFF" stroke-width="4" mask="url(#mask-2)" xlink:href="#path-1"/></g></g><g id="ucp" transform="translate(262.000000, 0.000000)"><g transform="translate(1.000000, 116.000000)"><rect id="ucp-box" width="180" height="27" x="0" y="0" fill="#1488C6"/><text id="UCP" fill="#FFF" font-family="OpenSans, Open Sans" font-size="14" font-weight="normal"><tspan x="75.36" y="19">UCP</tspan></text></g><rect id="Rectangle-138" width="181.124" height="144" x="0" y="0" stroke="#82949E" stroke-width="2" rx="2"/><g id="service" transform="translate(3.000000, 85.000000)"><rect width="30" height="27" x="0" y="2" fill="#1488C6" rx="2"/><g id="signed" transform="translate(21.000000, 0.000000)"><circle id="sign" cx="5.5" cy="5.5" r="5.5" fill="#00B6B5"/><polyline id="Path-2" stroke="#FFF" stroke-linecap="round" points="2.331 5.04 4.666 7.31 8.534 3.35"/></g></g></g><g id="arrow" transform="translate(466.500000, 72.000000) scale(1, -1) translate(-466.500000, -72.000000) translate(440.000000, 68.000000)"><path id="Line" stroke="#1488C6" stroke-linecap="round" stroke-linejoin="round" stroke-width="2" d="M2,4 L52.5,4"/><g id="Oval"><use fill="#1488C6" fill-rule="evenodd" xlink:href="#path-3"/><use stroke="#FFF" stroke-width="4" mask="url(#mask-4)" xlink:href="#path-3"/></g></g><g id="dtr" transform="translate(485.000000, 0.000000)"><use id="chrome" fill="#FFF" stroke="#82949E" stroke-width="2" mask="url(#mask-6)" xlink:href="#path-5"/><g id="table" transform="translate(9.000000, 60.000000)"><g id="data" fill="#82949E" font-family="OpenSans, Open Sans" font-size="12" font-weight="normal" transform="translate(0.000000, 25.000000)"><text id="dave"><tspan x="145" y="13">dave.lauper</tspan></text><text id="9baa"><tspan x="61" y="13">9baa16</tspan></text><text id="1"><tspan x="0" y="13">1</tspan></text></g><g id="signed" transform="translate(9.000000, 28.000000)"><circle id="sign" cx="5.5" cy="5.5" r="5.5" fill="#00B6B5"/><polyline id="Path-2" stroke="#FFF" stroke-linecap="round" points="2.331 5.04 4.666 7.31 8.534 3.35"/></g><g id="header" fill="#82949E" font-family="OpenSans, Open Sans" font-size="12" font-weight="normal"><text id="last"><tspan x="145" y="13">last pushed</tspan></text><text id="id"><tspan x="61" y="13">id</tspan></text><text id="tag"><tspan x="0" y="13">tag</tspan></text></g></g><g id="repo" transform="translate(0.000000, 26.000000)"><rect id="header" width="228" height="27" x="0" y="0" fill="#82949E"/><text id="dev/nginx" fill="#FFF" font-family="OpenSans, Open Sans" font-size="12" font-weight="normal"><tspan x="9" y="18">dev/nginx</tspan></text></g><g id="header"><path id="Line" stroke="#E0E4E7" stroke-linecap="square" d="M9.5,79.5 L217.5,79.5"/><rect width="228" height="27" x="0" y="0" fill="#1488C6"/><text id="docker-trusted-regis" fill="#FFF" font-family="OpenSans, Open Sans" font-size="12" font-weight="normal"><tspan x="9" y="18">docker trusted registry</tspan></text></g></g></g></g></g></svg>