<svg xmlns="http://www.w3.org/2000/svg" xmlns:xlink="http://www.w3.org/1999/xlink" width="740" height="250" version="1.1" viewBox="0 0 740 250"><title>image-promotion</title><desc>Created with Sketch.</desc><g id="dtr-diagrams" fill="none" fill-rule="evenodd" stroke="none" stroke-width="1"><g id="image-promotion"><g id="Group" transform="translate(12.000000, 3.000000)"><g id="right" transform="translate(415.000000, 0.000000)"><text id="DTR-cluster" fill="#82949E" font-family="OpenSans-Semibold, Open Sans" font-size="10" font-weight="500"><tspan x="11.025" y="236.01">DTR cluster</tspan></text><rect id="group" width="302" height="245" x="0" y="0" stroke="#82949E" stroke-dasharray="5 5 5 5" stroke-width="2" rx="2"/><g id="website-prod" transform="translate(31.000000, 145.000000)"><text id="tags" fill="#82949E" font-family="OpenSans-Semibold, Open Sans" font-size="12" font-weight="500"><tspan x="38" y="40">2017-05-16</tspan></text><path id="Line" stroke="#E0E4E7" stroke-linecap="square" d="M31.5,31.5 L31.5,40.5"/><text id="docker/website-prod" fill="#82949E" font-family="OpenSans-Semibold, Open Sans" font-size="14" font-weight="500"><tspan x="31" y="19">docker/website-prod</tspan></text><text id="" fill="#8F9EA8" font-family="FontAwesome" font-size="26" font-weight="normal"><tspan x="0" y="22"></tspan></text></g><g id="website-dev" transform="translate(31.000000, 16.000000)"><text id="tags" fill="#82949E" font-family="OpenSans-Semibold, Open Sans" font-size="12" font-weight="500"><tspan x="38" y="40">1</tspan> <tspan x="38" y="57">2</tspan> <tspan x="38" y="74">3-stable</tspan></text><path id="Line" stroke="#E0E4E7" stroke-linecap="square" d="M31.5,31.5 L31.5,73.5"/><text id="docker/website-dev" fill="#82949E" font-family="OpenSans-Semibold, Open Sans" font-size="14" font-weight="500"><tspan x="31" y="19">docker/website-dev</tspan></text><text id="" fill="#8F9EA8" font-family="FontAwesome" font-size="26" font-weight="normal"><tspan x="0" y="22"></tspan></text></g></g><g id="left"><text id="your-machine-or-a-CI" fill="#82949E" font-family="OpenSans-Semibold, Open Sans" font-size="10" font-weight="500"><tspan x="11.025" y="236.01">your machine or a CI system</tspan></text><rect id="group" width="258" height="245" x="0" y="0" stroke="#82949E" stroke-dasharray="5 5 5 5" stroke-width="2" rx="2"/><text id="docker-build-copy" fill="#82949E" font-family="CourierNewPS-BoldMT, Courier New" font-size="12" font-weight="bold"><tspan x="24" y="179">&gt; docker push</tspan></text><g id="website-dev-copy" transform="translate(24.000000, 80.000000)"><text id="tags" fill="#82949E" font-family="OpenSans-Semibold, Open Sans" font-size="12" font-weight="500"><tspan x="38" y="40">3-stable</tspan></text><path id="Line" stroke="#E0E4E7" stroke-linecap="square" d="M31.5,31.5 L31.5,40.5"/><text id="docker/website-dev" fill="#82949E" font-family="OpenSans-Semibold, Open Sans" font-size="14" font-weight="500"><tspan x="31" y="19">docker/website-dev</tspan></text><text id="" fill="#8F9EA8" font-family="FontAwesome" font-size="26" font-weight="normal"><tspan x="0" y="22"></tspan></text></g><text id="docker-build" fill="#82949E" font-family="CourierNewPS-BoldMT, Courier New" font-size="12" font-weight="bold"><tspan x="24" y="35">&gt; docker build</tspan></text></g><g id="arrow-3" transform="translate(631.000000, 84.000000)"><circle id="Oval" cx="3" cy="60" r="3" fill="#E0E4E7"/><path id="Path-3" stroke="#E0E4E7" d="M2.41908766,0.636305719 C2.41908766,0.636305719 11.6017022,12.0306637 11.6017022,30.660122 C11.6017022,49.2895802 2.41908766,60.6839382 2.41908766,60.6839382"/><g id="annotation" transform="translate(17.000000, 15.000000)"><circle id="Oval-Copy" cx="12" cy="12" r="12" fill="#E0E4E7"/><text id="1" fill="#FFF" font-family="OpenSans-Semibold, Open Sans" font-size="14" font-weight="500"><tspan x="8" y="18">3</tspan></text></g></g><g id="arrow-2" transform="translate(267.000000, 81.000000)"><circle id="Oval" cx="132" cy="3" r="3" fill="#E0E4E7"/><path id="Path-3" stroke="#E0E4E7" d="M0.736586752,95 C0.736586752,95 29.3002372,54.2809317 61.5528708,31.5999726 C93.8055043,8.91901355 131.561843,3 131.561843,3"/><g id="annotation" transform="translate(44.000000, 3.000000)"><circle id="Oval-Copy" cx="12" cy="12" r="12" fill="#E0E4E7"/><text id="1" fill="#FFF" font-family="OpenSans-Semibold, Open Sans" font-size="14" font-weight="500"><tspan x="8" y="18">2</tspan></text></g></g><g id="arrow-1" transform="translate(201.000000, 33.000000)"><circle id="Oval" cx="3" cy="60" r="3" fill="#E0E4E7"/><path id="Path-3" stroke="#E0E4E7" d="M2.41908766,0.636305719 C2.41908766,0.636305719 11.6017022,12.0306637 11.6017022,30.660122 C11.6017022,49.2895802 2.41908766,60.6839382 2.41908766,60.6839382"/><g id="annotation" transform="translate(17.000000, 19.000000)"><circle id="Oval-Copy" cx="12" cy="12" r="12" fill="#E0E4E7"/><text id="1" fill="#FFF" font-family="OpenSans-Semibold, Open Sans" font-size="14" font-weight="500"><tspan x="8" y="18">1</tspan></text></g></g></g></g></g></svg>