<svg xmlns="http://www.w3.org/2000/svg" xmlns:xlink="http://www.w3.org/1999/xlink" width="740" height="250" version="1.1" viewBox="0 0 740 250"><title>architecture-2</title><desc>Created with Sketch.</desc><g id="architecture-diagrams" fill="none" fill-rule="evenodd" stroke="none" stroke-width="1"><g id="architecture-2"><text id="Docker-swarm" fill="#82949E" font-family="OpenSans-Semibold, Open Sans" font-size="10" font-weight="500"><tspan x="178.025" y="239.01">Docker swarm</tspan></text><g id="nodes" transform="translate(215.000000, 15.000000)"><g id="workers" transform="translate(53.000000, 118.000000)"><g id="node-1"><g id="node"><g id="node-label"><rect id="Rectangle-127" width="71" height="21.29" x="0" y="0" fill="#445D6E" rx="2"/><text id="worker-node" fill="#FFF" font-family="OpenSans, Open Sans" font-size="8" font-weight="normal"><tspan x="6" y="14">worker node</tspan></text></g></g><g id="engine" transform="translate(1.000000, 79.000000)"><rect id="Rectangle-138" width="95" height="22" x="0" y="0" fill="#1488C6" rx="2"/><text id="Docker-Enterprise-Engine" fill="#FFF" font-family="OpenSans, Open Sans" font-size="10" font-weight="normal"><tspan x="24" y="15">Docker EE</tspan></text></g><g id="ucp" transform="translate(1.000000, 56.000000)"><rect id="Rectangle-138" width="95" height="22" x="0" y="0" fill="#1488C6" rx="2"/><text id="UCP-agent" fill="#FFF" font-family="OpenSans, Open Sans" font-size="10" font-weight="normal"><tspan x="23.737" y="15">UCP agent</tspan></text></g><g id="app" transform="translate(1.000000, 33.000000)"><rect id="Rectangle-138" width="95" height="22" x="0" y="0" fill="#FFB463" rx="2"/><text id="UCP-worker" fill="#FFF" font-family="OpenSans, Open Sans" font-size="10" font-weight="normal"><tspan x="20.476" y="15">UCP worker</tspan></text></g><rect id="node-border" width="97" height="102" x="0" y="0" stroke="#445D6E" stroke-width="2" rx="2"/></g><g id="node-1-copy-3" transform="translate(107.000000, 0.000000)"><g id="node"><g id="node-label"><rect id="Rectangle-127" width="71" height="21.29" x="0" y="0" fill="#445D6E" rx="2"/><text id="worker-node" fill="#FFF" font-family="OpenSans, Open Sans" font-size="8" font-weight="normal"><tspan x="6" y="14">worker node</tspan></text></g></g><g id="engine" transform="translate(1.000000, 79.000000)"><rect id="Rectangle-138" width="95" height="22" x="0" y="0" fill="#1488C6" rx="2"/><text id="Docker-Enterprise-Engine" fill="#FFF" font-family="OpenSans, Open Sans" font-size="10" font-weight="normal"><tspan x="24" y="15">Docker EE</tspan></text></g><g id="ucp" transform="translate(1.000000, 56.000000)"><rect id="Rectangle-138" width="95" height="22" x="0" y="0" fill="#1488C6" rx="2"/><text id="UCP-agent" fill="#FFF" font-family="OpenSans, Open Sans" font-size="10" font-weight="normal"><tspan x="23.737" y="15">UCP agent</tspan></text></g><g id="app" transform="translate(1.000000, 33.000000)"><rect id="Rectangle-138" width="95" height="22" x="0" y="0" fill="#FFB463" rx="2"/><text id="UCP-worker" fill="#FFF" font-family="OpenSans, Open Sans" font-size="10" font-weight="normal"><tspan x="20.476" y="15">UCP worker</tspan></text></g><rect id="node-border" width="97" height="102" x="0" y="0" stroke="#445D6E" stroke-width="2" rx="2"/></g></g><g id="managers"><g id="node-1"><g id="node"><g id="node-label"><rect id="Rectangle-127" width="71" height="21.29" x="0" y="0" fill="#445D6E" rx="2"/><text id="manager-node" fill="#FFF" font-family="OpenSans, Open Sans" font-size="8" font-weight="normal"><tspan x="6" y="14">manager node</tspan></text></g></g><g id="engine" transform="translate(1.000000, 79.000000)"><rect id="Rectangle-138" width="95" height="22" x="0" y="0" fill="#1488C6" rx="2"/><text id="Docker-Enterprise-Engine" fill="#FFF" font-family="OpenSans, Open Sans" font-size="10" font-weight="normal"><tspan x="24" y="15">Docker EE</tspan></text></g><g id="ucp" transform="translate(1.000000, 56.000000)"><rect id="Rectangle-138" width="95" height="22" x="0" y="0" fill="#1488C6" rx="2"/><text id="UCP-agent" fill="#FFF" font-family="OpenSans, Open Sans" font-size="10" font-weight="normal"><tspan x="23.737" y="15">UCP agent</tspan></text></g><g id="app" transform="translate(1.000000, 33.000000)"><rect id="Rectangle-138" width="95" height="22" x="0" y="0" fill="#00B6B5" rx="2"/><text id="UCP-manager" fill="#FFF" font-family="OpenSans, Open Sans" font-size="10" font-weight="normal"><tspan x="16.03" y="15">UCP manager</tspan></text></g><rect id="node-border" width="97" height="102" x="0" y="0" stroke="#445D6E" stroke-width="2" rx="2"/></g><g id="node-1-copy" transform="translate(107.000000, 0.000000)"><g id="node"><g id="node-label"><rect id="Rectangle-127" width="71" height="21.29" x="0" y="0" fill="#445D6E" rx="2"/><text id="manager-node" fill="#FFF" font-family="OpenSans, Open Sans" font-size="8" font-weight="normal"><tspan x="6" y="14">manager node</tspan></text></g></g><g id="engine" transform="translate(1.000000, 79.000000)"><rect id="Rectangle-138" width="95" height="22" x="0" y="0" fill="#1488C6" rx="2"/><text id="Docker-Enterprise-Engine" fill="#FFF" font-family="OpenSans, Open Sans" font-size="10" font-weight="normal"><tspan x="24" y="15">Docker EE</tspan></text></g><g id="ucp" transform="translate(1.000000, 56.000000)"><rect id="Rectangle-138" width="95" height="22" x="0" y="0" fill="#1488C6" rx="2"/><text id="UCP-agent" fill="#FFF" font-family="OpenSans, Open Sans" font-size="10" font-weight="normal"><tspan x="23.737" y="15">UCP agent</tspan></text></g><g id="app" transform="translate(1.000000, 33.000000)"><rect id="Rectangle-138" width="95" height="22" x="0" y="0" fill="#00B6B5" rx="2"/><text id="UCP-manager" fill="#FFF" font-family="OpenSans, Open Sans" font-size="10" font-weight="normal"><tspan x="16.03" y="15">UCP manager</tspan></text></g><rect id="node-border" width="97" height="102" x="0" y="0" stroke="#445D6E" stroke-width="2" rx="2"/></g><g id="node-1-copy-2" transform="translate(214.000000, 0.000000)"><g id="node"><g id="node-label"><rect id="Rectangle-127" width="71" height="21.29" x="0" y="0" fill="#445D6E" rx="2"/><text id="manager-node" fill="#FFF" font-family="OpenSans, Open Sans" font-size="8" font-weight="normal"><tspan x="6" y="14">manager node</tspan></text></g></g><g id="engine" transform="translate(1.000000, 79.000000)"><rect id="Rectangle-138" width="95" height="22" x="0" y="0" fill="#1488C6" rx="2"/><text id="Docker-Enterprise-Engine" fill="#FFF" font-family="OpenSans, Open Sans" font-size="10" font-weight="normal"><tspan x="24" y="15">Docker EE</tspan></text></g><g id="ucp" transform="translate(1.000000, 56.000000)"><rect id="Rectangle-138" width="95" height="22" x="0" y="0" fill="#1488C6" rx="2"/><text id="UCP-agent" fill="#FFF" font-family="OpenSans, Open Sans" font-size="10" font-weight="normal"><tspan x="23.737" y="15">UCP agent</tspan></text></g><g id="app" transform="translate(1.000000, 33.000000)"><rect id="Rectangle-138" width="95" height="22" x="0" y="0" fill="#00B6B5" rx="2"/><text id="UCP-manager" fill="#FFF" font-family="OpenSans, Open Sans" font-size="10" font-weight="normal"><tspan x="16.03" y="15">UCP manager</tspan></text></g><rect id="node-border" width="97" height="102" x="0" y="0" stroke="#445D6E" stroke-width="2" rx="2"/></g></g></g><rect id="group" width="401" height="245" x="169" y="3" stroke="#82949E" stroke-dasharray="5 5 5 5" stroke-width="2" rx="2"/></g></g></svg>