<svg xmlns="http://www.w3.org/2000/svg" xmlns:xlink="http://www.w3.org/1999/xlink" width="740" height="350" version="1.1" viewBox="0 0 740 350"><title>architecture-3</title><desc>Created with Sketch.</desc><defs><circle id="path-1" cx="4" cy="4" r="4"/><mask id="mask-2" width="12" height="12" x="-2" y="-2" maskContentUnits="userSpaceOnUse" maskUnits="objectBoundingBox"><rect width="12" height="12" x="-2" y="-2" fill="#fff"/><use fill="#000" xlink:href="#path-1"/></mask><circle id="path-3" cx="4" cy="4" r="4"/><mask id="mask-4" width="12" height="12" x="-2" y="-2" maskContentUnits="userSpaceOnUse" maskUnits="objectBoundingBox"><rect width="12" height="12" x="-2" y="-2" fill="#fff"/><use fill="#000" xlink:href="#path-3"/></mask><circle id="path-5" cx="4" cy="4" r="4"/><mask id="mask-6" width="12" height="12" x="-2" y="-2" maskContentUnits="userSpaceOnUse" maskUnits="objectBoundingBox"><rect width="12" height="12" x="-2" y="-2" fill="#fff"/><use fill="#000" xlink:href="#path-5"/></mask></defs><g id="architecture-diagrams" fill="none" fill-rule="evenodd" stroke="none" stroke-width="1"><g id="architecture-3"><g id="ddc" transform="translate(169.000000, 56.000000)"><g id="swarm-group" transform="translate(0.000000, 42.000000)"><text id="Docker-swarm" fill="#E0E4E7" font-family="OpenSans-Semibold, Open Sans" font-size="10" font-weight="500"><tspan x="9.025" y="236.01">Docker swarm</tspan></text><rect id="group" width="401" height="245" x="0" y="0" stroke="#E0E4E7" stroke-dasharray="5 5 5 5" stroke-width="2" rx="2"/></g><g id="load-balancer" transform="translate(47.000000, 0.000000)"><g id="main"><rect id="Rectangle-138" width="309" height="22" x="0" y="0" fill="#445D6E" rx="2"/><text id="your-load-balancer" fill="#FFF" font-family="OpenSans, Open Sans" font-size="10" font-weight="normal"><tspan x="111.438" y="15">your load balancer</tspan></text></g><g id="arrows" transform="translate(43.000000, 21.000000)"><g id="arrow-copy-3" transform="translate(218.500000, 17.000000) scale(1, -1) rotate(-90.000000) translate(-218.500000, -17.000000) translate(202.000000, 13.000000)"><path id="Line" stroke="#445D6E" stroke-linecap="round" stroke-linejoin="round" stroke-width="2" d="M2,4 L33,4"/><g id="Oval"><use fill="#445D6E" fill-rule="evenodd" xlink:href="#path-1"/><use stroke="#F7F8F9" stroke-width="4" mask="url(#mask-2)" xlink:href="#path-1"/></g></g><g id="arrow-copy" transform="translate(111.500000, 17.000000) scale(1, -1) rotate(-90.000000) translate(-111.500000, -17.000000) translate(95.000000, 13.000000)"><path id="Line" stroke="#445D6E" stroke-linecap="round" stroke-linejoin="round" stroke-width="2" d="M2,4 L33,4"/><g id="Oval"><use fill="#445D6E" fill-rule="evenodd" xlink:href="#path-3"/><use stroke="#F7F8F9" stroke-width="4" mask="url(#mask-4)" xlink:href="#path-3"/></g></g><g id="arrow-copy-2" transform="translate(4.500000, 17.000000) scale(1, -1) rotate(-90.000000) translate(-4.500000, -17.000000) translate(-12.000000, 13.000000)"><path id="Line" stroke="#445D6E" stroke-linecap="round" stroke-linejoin="round" stroke-width="2" d="M2,4 L33,4"/><g id="Oval"><use fill="#445D6E" fill-rule="evenodd" xlink:href="#path-5"/><use stroke="#F7F8F9" stroke-width="4" mask="url(#mask-6)" xlink:href="#path-5"/></g></g></g></g><g id="swam" transform="translate(46.000000, 54.000000)"><g id="nodes"><g id="workers" transform="translate(53.000000, 118.000000)"><g id="node-1"><g id="node"><g id="node-label"><rect id="Rectangle-127" width="71" height="21.29" x="0" y="0" fill="#E0E4E7" rx="2"/><text id="worker-node" fill="#FFF" font-family="OpenSans, Open Sans" font-size="8" font-weight="normal"><tspan x="6" y="14">worker node</tspan></text></g></g><g id="engine" transform="translate(1.000000, 79.000000)"><rect id="Rectangle-138" width="95" height="22" x="0" y="0" fill="#A1CFE8" rx="2"/><text id="CS-Docker-Engine" fill="#FFF" font-family="OpenSans, Open Sans" font-size="10" font-weight="normal"><tspan x="7.26" y="15">CS Docker Engine</tspan></text></g><g id="ucp" transform="translate(1.000000, 56.000000)"><rect id="Rectangle-138" width="95" height="22" x="0" y="0" fill="#A1CFE8" rx="2"/><text id="UCP-agent" fill="#FFF" font-family="OpenSans, Open Sans" font-size="10" font-weight="normal"><tspan x="23.737" y="15">UCP agent</tspan></text></g><g id="app" transform="translate(1.000000, 33.000000)"><rect id="Rectangle-138" width="95" height="22" x="0" y="0" fill="#FFE1C0" rx="2"/><text id="UCP-worker" fill="#FFF" font-family="OpenSans, Open Sans" font-size="10" font-weight="normal"><tspan x="20.476" y="15">UCP worker</tspan></text></g><rect id="node-border" width="97" height="102" x="0" y="0" stroke="#E0E4E7" stroke-width="2" rx="2"/></g><g id="node-1-copy-3" transform="translate(107.000000, 0.000000)"><g id="node"><g id="node-label"><rect id="Rectangle-127" width="71" height="21.29" x="0" y="0" fill="#E0E4E7" rx="2"/><text id="worker-node" fill="#FFF" font-family="OpenSans, Open Sans" font-size="8" font-weight="normal"><tspan x="6" y="14">worker node</tspan></text></g></g><g id="engine" transform="translate(1.000000, 79.000000)"><rect id="Rectangle-138" width="95" height="22" x="0" y="0" fill="#A1CFE8" rx="2"/><text id="CS-Docker-Engine" fill="#FFF" font-family="OpenSans, Open Sans" font-size="10" font-weight="normal"><tspan x="7.26" y="15">CS Docker Engine</tspan></text></g><g id="ucp" transform="translate(1.000000, 56.000000)"><rect id="Rectangle-138" width="95" height="22" x="0" y="0" fill="#A1CFE8" rx="2"/><text id="UCP-agent" fill="#FFF" font-family="OpenSans, Open Sans" font-size="10" font-weight="normal"><tspan x="23.737" y="15">UCP agent</tspan></text></g><g id="app" transform="translate(1.000000, 33.000000)"><rect id="Rectangle-138" width="95" height="22" x="0" y="0" fill="#FFE1C0" rx="2"/><text id="UCP-worker" fill="#FFF" font-family="OpenSans, Open Sans" font-size="10" font-weight="normal"><tspan x="20.476" y="15">UCP worker</tspan></text></g><rect id="node-border" width="97" height="102" x="0" y="0" stroke="#E0E4E7" stroke-width="2" rx="2"/></g></g><g id="managers"><g id="node-1-copy-2" transform="translate(214.000000, 0.000000)"><g id="node"><g id="node-label"><rect id="Rectangle-127" width="71" height="21.29" x="0" y="0" fill="#445D6E" rx="2"/><text id="manager-node" fill="#FFF" font-family="OpenSans, Open Sans" font-size="8" font-weight="normal"><tspan x="6" y="14">manager node</tspan></text></g></g><g id="engine" transform="translate(1.000000, 79.000000)"><rect id="Rectangle-138" width="95" height="22" x="0" y="0" fill="#1488C6" rx="2"/><text id="CS-Docker-Engine" fill="#FFF" font-family="OpenSans, Open Sans" font-size="10" font-weight="normal"><tspan x="7.26" y="15">CS Docker Engine</tspan></text></g><g id="ucp" transform="translate(1.000000, 56.000000)"><rect id="Rectangle-138" width="95" height="22" x="0" y="0" fill="#1488C6" rx="2"/><text id="UCP-agent" fill="#FFF" font-family="OpenSans, Open Sans" font-size="10" font-weight="normal"><tspan x="23.737" y="15">UCP agent</tspan></text></g><g id="app" transform="translate(1.000000, 33.000000)"><rect id="Rectangle-138" width="95" height="22" x="0" y="0" fill="#00B6B5" rx="2"/><text id="UCP-manager" fill="#FFF" font-family="OpenSans, Open Sans" font-size="10" font-weight="normal"><tspan x="16.03" y="15">UCP manager</tspan></text></g><rect id="node-border" width="97" height="102" x="0" y="0" stroke="#445D6E" stroke-width="2" rx="2"/></g><g id="node-1-copy" transform="translate(107.000000, 0.000000)"><g id="node"><g id="node-label"><rect id="Rectangle-127" width="71" height="21.29" x="0" y="0" fill="#445D6E" rx="2"/><text id="manager-node" fill="#FFF" font-family="OpenSans, Open Sans" font-size="8" font-weight="normal"><tspan x="6" y="14">manager node</tspan></text></g></g><g id="engine" transform="translate(1.000000, 79.000000)"><rect id="Rectangle-138" width="95" height="22" x="0" y="0" fill="#1488C6" rx="2"/><text id="CS-Docker-Engine" fill="#FFF" font-family="OpenSans, Open Sans" font-size="10" font-weight="normal"><tspan x="7.26" y="15">CS Docker Engine</tspan></text></g><g id="ucp" transform="translate(1.000000, 56.000000)"><rect id="Rectangle-138" width="95" height="22" x="0" y="0" fill="#1488C6" rx="2"/><text id="UCP-agent" fill="#FFF" font-family="OpenSans, Open Sans" font-size="10" font-weight="normal"><tspan x="23.737" y="15">UCP agent</tspan></text></g><g id="app" transform="translate(1.000000, 33.000000)"><rect id="Rectangle-138" width="95" height="22" x="0" y="0" fill="#00B6B5" rx="2"/><text id="UCP-manager" fill="#FFF" font-family="OpenSans, Open Sans" font-size="10" font-weight="normal"><tspan x="16.03" y="15">UCP manager</tspan></text></g><rect id="node-border" width="97" height="102" x="0" y="0" stroke="#445D6E" stroke-width="2" rx="2"/></g><g id="node-1"><g id="node"><g id="node-label"><rect id="Rectangle-127" width="71" height="21.29" x="0" y="0" fill="#445D6E" rx="2"/><text id="manager-node" fill="#FFF" font-family="OpenSans, Open Sans" font-size="8" font-weight="normal"><tspan x="6" y="14">manager node</tspan></text></g></g><g id="engine" transform="translate(1.000000, 79.000000)"><rect id="Rectangle-138" width="95" height="22" x="0" y="0" fill="#1488C6" rx="2"/><text id="CS-Docker-Engine" fill="#FFF" font-family="OpenSans, Open Sans" font-size="10" font-weight="normal"><tspan x="7.26" y="15">CS Docker Engine</tspan></text></g><g id="ucp" transform="translate(1.000000, 56.000000)"><rect id="Rectangle-138" width="95" height="22" x="0" y="0" fill="#1488C6" rx="2"/><text id="UCP-agent" fill="#FFF" font-family="OpenSans, Open Sans" font-size="10" font-weight="normal"><tspan x="23.737" y="15">UCP agent</tspan></text></g><g id="app" transform="translate(1.000000, 33.000000)"><rect id="Rectangle-138" width="95" height="22" x="0" y="0" fill="#00B6B5" rx="2"/><text id="UCP-manager" fill="#FFF" font-family="OpenSans, Open Sans" font-size="10" font-weight="normal"><tspan x="16.03" y="15">UCP manager</tspan></text></g><rect id="node-border" width="97" height="102" x="0" y="0" stroke="#445D6E" stroke-width="2" rx="2"/></g></g></g></g></g><g id="user" fill="#82949E" transform="translate(337.000000, 5.000000)"><g><text id="UI" font-family="OpenSans, Open Sans" font-size="12" font-weight="normal"><tspan x="7" y="41">UI</tspan></text><path id="Shape" d="M13,13 C16.59125,13 19.5,10.083125 19.5,6.5 C19.5,2.90875 16.59125,0 13,0 C9.40875,0 6.5,2.90875 6.5,6.5 C6.5,10.083125 9.40875,13 13,13 L13,13 Z M13,16.25 C8.669375,16.25 0,18.419375 0,22.75 L0,26 L26,26 L26,22.75 C26,18.419375 17.330625,16.25 13,16.25 L13,16.25 Z"/></g><g id="user-copy" transform="translate(42.000000, 0.000000)"><text id="CLI" font-family="OpenSans, Open Sans" font-size="12" font-weight="normal"><tspan x="4" y="41">CLI</tspan></text><path id="Shape" d="M13,13 C16.59125,13 19.5,10.083125 19.5,6.5 C19.5,2.90875 16.59125,0 13,0 C9.40875,0 6.5,2.90875 6.5,6.5 C6.5,10.083125 9.40875,13 13,13 L13,13 Z M13,16.25 C8.669375,16.25 0,18.419375 0,22.75 L0,26 L26,26 L26,22.75 C26,18.419375 17.330625,16.25 13,16.25 L13,16.25 Z"/></g></g></g></g></svg>