<svg xmlns="http://www.w3.org/2000/svg" xmlns:xlink="http://www.w3.org/1999/xlink" width="740" height="550" version="1.1" viewBox="0 0 740 550"><title>deploy-caches-ha-1</title><desc>Created with Sketch.</desc><defs><circle id="path-1" cx="4" cy="4" r="4"/><circle id="path-2" cx="4" cy="4" r="4"/><circle id="path-3" cx="4" cy="4" r="4"/><circle id="path-4" cx="4" cy="4" r="4"/><circle id="path-5" cx="4" cy="4" r="4"/><circle id="path-6" cx="4" cy="4" r="4"/><circle id="path-7" cx="4" cy="4" r="4"/><circle id="path-8" cx="4" cy="4" r="4"/><circle id="path-9" cx="4" cy="4" r="4"/><circle id="path-10" cx="4" cy="4" r="4"/><circle id="path-11" cx="4" cy="4" r="4"/><circle id="path-12" cx="4" cy="4" r="4"/></defs><g id="dtr-diagrams" fill="none" fill-rule="evenodd" stroke="none" stroke-width="1"><g id="deploy-caches-ha-1"><g id="asia" transform="translate(11.000000, 318.000000)"><rect id="group" width="336" height="184" x="0" y="42" stroke="#82949E" stroke-dasharray="5 5 5 5" stroke-width="2" rx="2"/><text id="Asia-datacenter" fill="#82949E" font-family="OpenSans-Semibold, Open Sans" font-size="10" font-weight="500"><tspan x="10.822" y="218.01">Asia datacenter</tspan></text><g id="storage" transform="translate(15.000000, 143.000000)"><rect id="Rectangle-138" width="309" height="22" x="0" y="31" fill="#00B6B5" rx="2"/><text id="shared-storage" fill="#FFF" font-family="OpenSans, Open Sans" font-size="10" font-weight="normal"><tspan x="118.52" y="46">shared storage</tspan></text><g id="arrows" transform="translate(44.000000, 0.000000)"><g id="arrow-copy-2" transform="translate(218.500000, 17.000000) rotate(-90.000000) translate(-218.500000, -17.000000) translate(202.000000, 13.000000)"><path id="Line" stroke="#00B6B5" stroke-linecap="round" stroke-linejoin="round" stroke-width="2" d="M2,4 L33,4"/><g id="Oval"><use fill="#00B6B5" fill-rule="evenodd" xlink:href="#path-1"/><circle cx="4" cy="4" r="5" stroke="#F7F8F9" stroke-width="2"/></g></g><g id="arrow-copy-3" transform="translate(111.500000, 17.000000) rotate(-90.000000) translate(-111.500000, -17.000000) translate(95.000000, 13.000000)"><path id="Line" stroke="#00B6B5" stroke-linecap="round" stroke-linejoin="round" stroke-width="2" d="M2,4 L33,4"/><g id="Oval"><use fill="#00B6B5" fill-rule="evenodd" xlink:href="#path-2"/><circle cx="4" cy="4" r="5" stroke="#F7F8F9" stroke-width="2"/></g></g><g id="arrow-copy-4" transform="translate(4.500000, 17.000000) rotate(-90.000000) translate(-4.500000, -17.000000) translate(-12.000000, 13.000000)"><path id="Line" stroke="#00B6B5" stroke-linecap="round" stroke-linejoin="round" stroke-width="2" d="M2,4 L33,4"/><g id="Oval"><use fill="#00B6B5" fill-rule="evenodd" xlink:href="#path-3"/><circle cx="4" cy="4" r="5" stroke="#F7F8F9" stroke-width="2"/></g></g></g></g><g id="nodes" transform="translate(14.000000, 54.000000)"><g id="node-1-copy-4"><g id="node"><g id="node-label"><path id="Rectangle-127" fill="#445D6E" d="M0,2.00295631 C0,0.896754086 0.897702336,0 1.99174577,0 L71,0 L71,10.6452381 C71,16.5244408 66.2312425,21.2904762 60.3513837,21.2904762 L0,21.2904762 L0,2.00295631 Z"/><text id="worker-node" fill="#FFF" font-family="OpenSans, Open Sans" font-size="8" font-weight="normal"><tspan x="6" y="14">worker node</tspan></text></g></g><g id="engine" transform="translate(1.000000, 79.000000)"><rect id="Rectangle-138" width="95" height="22" x="0" y="0" fill="#1488C6" rx="2"/><text id="Docker-EE-Engine" fill="#FFF" font-family="OpenSans, Open Sans" font-size="10" font-weight="normal"><tspan x="7.597" y="15">Docker EE Engine</tspan></text></g><g id="ucp-copy" transform="translate(1.000000, 56.000000)"><rect id="Rectangle-138" width="95" height="22" x="0" y="0" fill="#00B6B5" rx="2"/><text id="DTR-cache" fill="#FFF" font-family="OpenSans, Open Sans" font-size="10" font-weight="normal"><tspan x="23.784" y="15">DTR cache</tspan></text></g><rect id="node-border" width="97" height="102" x="0" y="0" stroke="#445D6E" stroke-width="2" rx="2"/></g><g id="node-1-copy-5" transform="translate(107.000000, 0.000000)"><g id="node"><g id="node-label"><path id="Rectangle-127" fill="#445D6E" d="M0,2.00295631 C0,0.896754086 0.897702336,0 1.99174577,0 L71,0 L71,10.6452381 C71,16.5244408 66.2312425,21.2904762 60.3513837,21.2904762 L0,21.2904762 L0,2.00295631 Z"/><text id="worker-node" fill="#FFF" font-family="OpenSans, Open Sans" font-size="8" font-weight="normal"><tspan x="6" y="14">worker node</tspan></text></g></g><g id="engine" transform="translate(1.000000, 79.000000)"><rect id="Rectangle-138" width="95" height="22" x="0" y="0" fill="#1488C6" rx="2"/><text id="Docker-EE-Engine" fill="#FFF" font-family="OpenSans, Open Sans" font-size="10" font-weight="normal"><tspan x="7.597" y="15">Docker EE Engine</tspan></text></g><g id="ucp-copy" transform="translate(1.000000, 56.000000)"><rect id="Rectangle-138" width="95" height="22" x="0" y="0" fill="#00B6B5" rx="2"/><text id="DTR-cache" fill="#FFF" font-family="OpenSans, Open Sans" font-size="10" font-weight="normal"><tspan x="23.784" y="15">DTR cache</tspan></text></g><rect id="node-border" width="97" height="102" x="0" y="0" stroke="#445D6E" stroke-width="2" rx="2"/></g><g id="node-1-copy-6" transform="translate(214.000000, 0.000000)"><g id="node"><g id="node-label"><path id="Rectangle-127" fill="#445D6E" d="M0,2.00295631 C0,0.896754086 0.897702336,0 1.99174577,0 L71,0 L71,10.6452381 C71,16.5244408 66.2312425,21.2904762 60.3513837,21.2904762 L0,21.2904762 L0,2.00295631 Z"/><text id="worker-node" fill="#FFF" font-family="OpenSans, Open Sans" font-size="8" font-weight="normal"><tspan x="6" y="14">worker node</tspan></text></g></g><g id="engine" transform="translate(1.000000, 79.000000)"><rect id="Rectangle-138" width="95" height="22" x="0" y="0" fill="#1488C6" rx="2"/><text id="Docker-EE-Engine" fill="#FFF" font-family="OpenSans, Open Sans" font-size="10" font-weight="normal"><tspan x="7.597" y="15">Docker EE Engine</tspan></text></g><g id="ucp-copy" transform="translate(1.000000, 56.000000)"><rect id="Rectangle-138" width="95" height="22" x="0" y="0" fill="#00B6B5" rx="2"/><text id="DTR-cache" fill="#FFF" font-family="OpenSans, Open Sans" font-size="10" font-weight="normal"><tspan x="23.784" y="15">DTR cache</tspan></text></g><rect id="node-border" width="97" height="102" x="0" y="0" stroke="#445D6E" stroke-width="2" rx="2"/></g></g><g id="lb" transform="translate(15.000000, 0.000000)"><g id="main"><rect id="Rectangle-138" width="309" height="22" x="0" y="0" fill="#445D6E" rx="2"/><text id="your-load-balancer" fill="#FFF" font-family="OpenSans, Open Sans" font-size="10" font-weight="normal"><tspan x="111.438" y="15">your load balancer</tspan></text></g><g id="arrows" transform="translate(43.000000, 21.000000)"><g id="arrow-copy-3" transform="translate(218.500000, 17.000000) scale(1, -1) rotate(-90.000000) translate(-218.500000, -17.000000) translate(202.000000, 13.000000)"><path id="Line" stroke="#445D6E" stroke-linecap="round" stroke-linejoin="round" stroke-width="2" d="M2,4 L33,4"/><g id="Oval"><use fill="#445D6E" fill-rule="evenodd" xlink:href="#path-4"/><circle cx="4" cy="4" r="5" stroke="#F7F8F9" stroke-width="2"/></g></g><g id="arrow-copy" transform="translate(111.500000, 17.000000) scale(1, -1) rotate(-90.000000) translate(-111.500000, -17.000000) translate(95.000000, 13.000000)"><path id="Line" stroke="#445D6E" stroke-linecap="round" stroke-linejoin="round" stroke-width="2" d="M2,4 L33,4"/><g id="Oval"><use fill="#445D6E" fill-rule="evenodd" xlink:href="#path-5"/><circle cx="4" cy="4" r="5" stroke="#F7F8F9" stroke-width="2"/></g></g><g id="arrow-copy-2" transform="translate(4.500000, 17.000000) scale(1, -1) rotate(-90.000000) translate(-4.500000, -17.000000) translate(-12.000000, 13.000000)"><path id="Line" stroke="#445D6E" stroke-linecap="round" stroke-linejoin="round" stroke-width="2" d="M2,4 L33,4"/><g id="Oval"><use fill="#445D6E" fill-rule="evenodd" xlink:href="#path-6"/><circle cx="4" cy="4" r="5" stroke="#F7F8F9" stroke-width="2"/></g></g></g></g></g><g id="us" transform="translate(202.000000, 6.000000)"><text id="US-datacenter" fill="#82949E" font-family="OpenSans-Semibold, Open Sans" font-size="10" font-weight="500"><tspan x="10.822" y="267.01">US datacenter</tspan></text><rect id="group" width="336" height="181" x="0" y="93" stroke="#82949E" stroke-dasharray="5 5 5 5" stroke-width="2" rx="2"/><g id="storage" transform="translate(14.000000, 194.000000)"><rect id="Rectangle-138" width="309" height="22" x="0" y="31" fill="#FFB463" rx="2"/><text id="shared-storage" fill="#FFF" font-family="OpenSans, Open Sans" font-size="10" font-weight="normal"><tspan x="118.52" y="46">shared storage</tspan></text><g id="arrows" transform="translate(44.000000, 0.000000)"><g id="arrow-copy-2" transform="translate(218.500000, 17.000000) rotate(-90.000000) translate(-218.500000, -17.000000) translate(202.000000, 13.000000)"><path id="Line" stroke="#FFB463" stroke-linecap="round" stroke-linejoin="round" stroke-width="2" d="M2,4 L33,4"/><g id="Oval"><use fill="#FFB463" fill-rule="evenodd" xlink:href="#path-7"/><circle cx="4" cy="4" r="5" stroke="#F7F8F9" stroke-width="2"/></g></g><g id="arrow-copy-3" transform="translate(111.500000, 17.000000) rotate(-90.000000) translate(-111.500000, -17.000000) translate(95.000000, 13.000000)"><path id="Line" stroke="#FFB463" stroke-linecap="round" stroke-linejoin="round" stroke-width="2" d="M2,4 L33,4"/><g id="Oval"><use fill="#FFB463" fill-rule="evenodd" xlink:href="#path-8"/><circle cx="4" cy="4" r="5" stroke="#F7F8F9" stroke-width="2"/></g></g><g id="arrow-copy-4" transform="translate(4.500000, 17.000000) rotate(-90.000000) translate(-4.500000, -17.000000) translate(-12.000000, 13.000000)"><path id="Line" stroke="#FFB463" stroke-linecap="round" stroke-linejoin="round" stroke-width="2" d="M2,4 L33,4"/><g id="Oval"><use fill="#FFB463" fill-rule="evenodd" xlink:href="#path-9"/><circle cx="4" cy="4" r="5" stroke="#F7F8F9" stroke-width="2"/></g></g></g></g><g id="nodes" transform="translate(14.000000, 105.000000)"><g id="node-1-copy-4"><g id="node"><g id="node-label"><path id="Rectangle-127" fill="#445D6E" d="M0,2.00295631 C0,0.896754086 0.897702336,0 1.99174577,0 L71,0 L71,10.6452381 C71,16.5244408 66.2312425,21.2904762 60.3513837,21.2904762 L0,21.2904762 L0,2.00295631 Z"/><text id="worker-node" fill="#FFF" font-family="OpenSans, Open Sans" font-size="8" font-weight="normal"><tspan x="6" y="14">worker node</tspan></text></g></g><g id="engine" transform="translate(1.000000, 79.000000)"><rect id="Rectangle-138" width="95" height="22" x="0" y="0" fill="#1488C6" rx="2"/><text id="Docker-EE-Engine" fill="#FFF" font-family="OpenSans, Open Sans" font-size="10" font-weight="normal"><tspan x="7.597" y="15">Docker EE Engine</tspan></text></g><g id="ucp" transform="translate(1.000000, 56.000000)"><rect id="Rectangle-138" width="95" height="22" x="0" y="0" fill="#1488C6" rx="2"/><text id="UCP-agent" fill="#FFF" font-family="OpenSans, Open Sans" font-size="10" font-weight="normal"><tspan x="23.737" y="15">UCP agent</tspan></text></g><g id="ucp-copy" transform="translate(1.000000, 33.000000)"><rect id="Rectangle-138" width="95" height="22" x="0" y="0" fill="#FFB463" rx="2"/><text id="DTR-replica" fill="#FFF" font-family="OpenSans, Open Sans" font-size="10" font-weight="normal"><tspan x="21.599" y="15">DTR replica</tspan></text></g><rect id="node-border" width="97" height="102" x="0" y="0" stroke="#445D6E" stroke-width="2" rx="2"/></g><g id="node-1-copy-5" transform="translate(107.000000, 0.000000)"><g id="node"><g id="node-label"><path id="Rectangle-127" fill="#445D6E" d="M0,2.00295631 C0,0.896754086 0.897702336,0 1.99174577,0 L71,0 L71,10.6452381 C71,16.5244408 66.2312425,21.2904762 60.3513837,21.2904762 L0,21.2904762 L0,2.00295631 Z"/><text id="worker-node" fill="#FFF" font-family="OpenSans, Open Sans" font-size="8" font-weight="normal"><tspan x="6" y="14">worker node</tspan></text></g></g><g id="engine" transform="translate(1.000000, 79.000000)"><rect id="Rectangle-138" width="95" height="22" x="0" y="0" fill="#1488C6" rx="2"/><text id="Docker-EE-Engine" fill="#FFF" font-family="OpenSans, Open Sans" font-size="10" font-weight="normal"><tspan x="7.597" y="15">Docker EE Engine</tspan></text></g><g id="ucp" transform="translate(1.000000, 56.000000)"><rect id="Rectangle-138" width="95" height="22" x="0" y="0" fill="#1488C6" rx="2"/><text id="UCP-agent" fill="#FFF" font-family="OpenSans, Open Sans" font-size="10" font-weight="normal"><tspan x="23.737" y="15">UCP agent</tspan></text></g><g id="ucp-copy" transform="translate(1.000000, 33.000000)"><rect id="Rectangle-138" width="95" height="22" x="0" y="0" fill="#FFB463" rx="2"/><text id="DTR-replica" fill="#FFF" font-family="OpenSans, Open Sans" font-size="10" font-weight="normal"><tspan x="21.599" y="15">DTR replica</tspan></text></g><rect id="node-border" width="97" height="102" x="0" y="0" stroke="#445D6E" stroke-width="2" rx="2"/></g><g id="node-1-copy-6" transform="translate(214.000000, 0.000000)"><g id="node"><g id="node-label"><path id="Rectangle-127" fill="#445D6E" d="M0,2.00295631 C0,0.896754086 0.897702336,0 1.99174577,0 L71,0 L71,10.6452381 C71,16.5244408 66.2312425,21.2904762 60.3513837,21.2904762 L0,21.2904762 L0,2.00295631 Z"/><text id="worker-node" fill="#FFF" font-family="OpenSans, Open Sans" font-size="8" font-weight="normal"><tspan x="6" y="14">worker node</tspan></text></g></g><g id="engine" transform="translate(1.000000, 79.000000)"><rect id="Rectangle-138" width="95" height="22" x="0" y="0" fill="#1488C6" rx="2"/><text id="Docker-EE-Engine" fill="#FFF" font-family="OpenSans, Open Sans" font-size="10" font-weight="normal"><tspan x="7.597" y="15">Docker EE Engine</tspan></text></g><g id="ucp" transform="translate(1.000000, 56.000000)"><rect id="Rectangle-138" width="95" height="22" x="0" y="0" fill="#1488C6" rx="2"/><text id="UCP-agent" fill="#FFF" font-family="OpenSans, Open Sans" font-size="10" font-weight="normal"><tspan x="23.737" y="15">UCP agent</tspan></text></g><g id="ucp-copy" transform="translate(1.000000, 33.000000)"><rect id="Rectangle-138" width="95" height="22" x="0" y="0" fill="#FFB463" rx="2"/><text id="DTR-replica" fill="#FFF" font-family="OpenSans, Open Sans" font-size="10" font-weight="normal"><tspan x="21.599" y="15">DTR replica</tspan></text></g><rect id="node-border" width="97" height="102" x="0" y="0" stroke="#445D6E" stroke-width="2" rx="2"/></g></g><g id="lb" transform="translate(15.000000, 51.000000)"><g id="main"><rect id="Rectangle-138" width="309" height="22" x="0" y="0" fill="#445D6E" rx="2"/><text id="your-load-balancer" fill="#FFF" font-family="OpenSans, Open Sans" font-size="10" font-weight="normal"><tspan x="111.438" y="15">your load balancer</tspan></text></g><g id="arrows" transform="translate(43.000000, 21.000000)"><g id="arrow-copy-3" transform="translate(218.500000, 17.000000) scale(1, -1) rotate(-90.000000) translate(-218.500000, -17.000000) translate(202.000000, 13.000000)"><path id="Line" stroke="#445D6E" stroke-linecap="round" stroke-linejoin="round" stroke-width="2" d="M2,4 L33,4"/><g id="Oval"><use fill="#445D6E" fill-rule="evenodd" xlink:href="#path-10"/><circle cx="4" cy="4" r="5" stroke="#F7F8F9" stroke-width="2"/></g></g><g id="arrow-copy" transform="translate(111.500000, 17.000000) scale(1, -1) rotate(-90.000000) translate(-111.500000, -17.000000) translate(95.000000, 13.000000)"><path id="Line" stroke="#445D6E" stroke-linecap="round" stroke-linejoin="round" stroke-width="2" d="M2,4 L33,4"/><g id="Oval"><use fill="#445D6E" fill-rule="evenodd" xlink:href="#path-11"/><circle cx="4" cy="4" r="5" stroke="#F7F8F9" stroke-width="2"/></g></g><g id="arrow-copy-2" transform="translate(4.500000, 17.000000) scale(1, -1) rotate(-90.000000) translate(-4.500000, -17.000000) translate(-12.000000, 13.000000)"><path id="Line" stroke="#445D6E" stroke-linecap="round" stroke-linejoin="round" stroke-width="2" d="M2,4 L33,4"/><g id="Oval"><use fill="#445D6E" fill-rule="evenodd" xlink:href="#path-12"/><circle cx="4" cy="4" r="5" stroke="#F7F8F9" stroke-width="2"/></g></g></g></g><g id="users" fill="#82949E" transform="translate(136.000000, 0.000000)"><g id="user"><text id="UI" font-family="OpenSans, Open Sans" font-size="12" font-weight="normal"><tspan x="7" y="41">UI</tspan></text><path id="Shape" d="M13,13 C16.59125,13 19.5,10.083125 19.5,6.5 C19.5,2.90875 16.59125,0 13,0 C9.40875,0 6.5,2.90875 6.5,6.5 C6.5,10.083125 9.40875,13 13,13 L13,13 Z M13,16.25 C8.669375,16.25 0,18.419375 0,22.75 L0,26 L26,26 L26,22.75 C26,18.419375 17.330625,16.25 13,16.25 L13,16.25 Z"/></g><g id="user-copy" transform="translate(42.000000, 0.000000)"><text id="CLI" font-family="OpenSans, Open Sans" font-size="12" font-weight="normal"><tspan x="4" y="41">CLI</tspan></text><path id="Shape" d="M13,13 C16.59125,13 19.5,10.083125 19.5,6.5 C19.5,2.90875 16.59125,0 13,0 C9.40875,0 6.5,2.90875 6.5,6.5 C6.5,10.083125 9.40875,13 13,13 L13,13 Z M13,16.25 C8.669375,16.25 0,18.419375 0,22.75 L0,26 L26,26 L26,22.75 C26,18.419375 17.330625,16.25 13,16.25 L13,16.25 Z"/></g></g></g><g id="arrow-1" transform="translate(68.000000, 203.000000)"><circle id="Oval" cx="96" cy="4" r="4" fill="#E0E4E7"/><path id="Path-3" stroke="#E0E4E7" stroke-linecap="round" stroke-linejoin="round" stroke-width="2" d="M96.0764013,88.0046436 C96.0764013,88.0046436 90,66.3943082 90,45.0023218 C90,23.6103355 96.0764013,2 96.0764013,2"/><text id="pull-from-upstream" fill="#E0E4E7" font-family="OpenSans-Semibold, Open Sans" font-size="14" font-weight="500"><tspan x="0" y="41">pull from</tspan> <tspan x="0" y="60">upstream</tspan></text></g><g id="europe" transform="translate(381.000000, 318.000000)"><rect width="336" height="226" x="0" y="0" fill="#E0E4E7" rx="4"/><text id="Europe-datacenter" fill="#FFF" font-family="OpenSans, Open Sans" font-size="26" font-weight="normal"><tspan x="55.329" y="183">Europe datacenter</tspan></text><text id="+" fill="#FFF" font-family="OpenSans, Open Sans" font-size="100" font-weight="normal"><tspan x="139.411" y="133">+</tspan></text></g></g></g></svg>