<svg xmlns="http://www.w3.org/2000/svg" xmlns:xlink="http://www.w3.org/1999/xlink" width="740" height="250" version="1.1" viewBox="0 0 740 250" style="background:#fff"><title>repair-cluster-2</title><desc>Created with Sketch.</desc><defs><circle id="path-1" cx="4" cy="4" r="4"/><circle id="path-2" cx="4" cy="4" r="4"/><circle id="path-3" cx="4" cy="4" r="4"/><circle id="path-4" cx="4" cy="4" r="4"/><circle id="path-5" cx="4" cy="4" r="4"/></defs><g id="dtr-diagrams" fill="none" fill-rule="evenodd" stroke="none" stroke-width="1"><g id="repair-cluster-2"><g id="group" transform="translate(30.000000, 55.000000)"><g id="dtr"><g id="network" fill="#439FD1" transform="translate(0.000000, 127.000000)"><rect id="Rectangle-138" width="682" height="14" x="0" y="0" rx="2"/></g><g id="nodes"><g id="node-1-copy-4" transform="translate(476.000000, 0.000000)"><g id="arrow" transform="translate(48.500000, 119.000000) rotate(-90.000000) translate(-48.500000, -119.000000) translate(32.000000, 115.000000)"><path id="Line" stroke="#82949E" stroke-dasharray="8" stroke-linecap="round" stroke-linejoin="round" stroke-width="2" d="M2,4 L33,4"/><g id="Oval"><use fill="#439FD1" fill-rule="evenodd" xlink:href="#path-1"/><circle cx="4" cy="4" r="5" stroke="#F7F8F9" stroke-width="2"/></g></g><g id="node" fill="#FFF" font-family="OpenSans, Open Sans" font-size="8" font-weight="normal" transform="translate(6.000000, 5.000000)"><g id="node-label"><text id="worker-node"><tspan x="0" y="9">worker node</tspan></text></g></g><rect id="node-border" width="97" height="102" x="0" y="0" stroke="#82949E" stroke-dasharray="8" stroke-width="2" rx="2"/></g><g id="node-1-copy-2" transform="translate(367.000000, 0.000000)"><g id="arrow" transform="translate(48.500000, 119.000000) rotate(-90.000000) translate(-48.500000, -119.000000) translate(32.000000, 115.000000)"><path id="Line" stroke="#439FD1" stroke-linecap="round" stroke-linejoin="round" stroke-width="2" d="M2,4 L33,4"/><g id="Oval"><use fill="#439FD1" fill-rule="evenodd" xlink:href="#path-2"/><circle cx="4" cy="4" r="5" stroke="#F7F8F9" stroke-width="2"/></g></g><g id="node"><g id="node-label"><path id="Rectangle-127" fill="#445D6E" d="M0,2.00295631 C0,0.896754086 0.897702336,0 1.99174577,0 L71,0 L71,10.6452381 C71,16.5244408 66.2312425,21.2904762 60.3513837,21.2904762 L0,21.2904762 L0,2.00295631 Z"/><text id="worker-node" fill="#FFF" font-family="OpenSans, Open Sans" font-size="8" font-weight="normal"><tspan x="6" y="14">worker node</tspan></text></g></g><g id="engine" transform="translate(1.000000, 43.000000)"><rect id="Rectangle-138" width="95" height="58" x="0" y="0" fill="#1488C6" rx="2"/><text id="DTR" fill="#FFF" font-family="OpenSans, Open Sans" font-size="10" font-weight="normal"><tspan x="38.498" y="33">DTR</tspan></text></g><rect id="node-border" width="97" height="102" x="0" y="0" stroke="#445D6E" stroke-width="2" rx="2"/></g><g id="node-1-copy-7" transform="translate(218.000000, 0.000000)"><g id="arrow" transform="translate(48.500000, 119.000000) rotate(-90.000000) translate(-48.500000, -119.000000) translate(32.000000, 115.000000)"><path id="Line" stroke="#82949E" stroke-dasharray="8" stroke-linecap="round" stroke-linejoin="round" stroke-width="2" d="M2,4 L33,4"/><g id="Oval"><use fill="#439FD1" fill-rule="evenodd" xlink:href="#path-3"/><circle cx="4" cy="4" r="5" stroke="#F7F8F9" stroke-width="2"/></g></g><g id="node" fill="#FFF" font-family="OpenSans, Open Sans" font-size="8" font-weight="normal" transform="translate(6.000000, 5.000000)"><g id="node-label"><text id="worker-node"><tspan x="0" y="9">worker node</tspan></text></g></g><rect id="node-border" width="97" height="102" x="0" y="0" stroke="#82949E" stroke-dasharray="8" stroke-width="2" rx="2"/><g id="error" fill="#FFF" transform="translate(32.000000, 55.000000)"><circle id="Oval-3" cx="17" cy="17" r="17"/></g></g><g id="node-1-copy-6" transform="translate(109.000000, 0.000000)"><g id="arrow" transform="translate(48.500000, 119.000000) rotate(-90.000000) translate(-48.500000, -119.000000) translate(32.000000, 115.000000)"><path id="Line" stroke="#82949E" stroke-dasharray="8" stroke-linecap="round" stroke-linejoin="round" stroke-width="2" d="M2,4 L33,4"/><g id="Oval"><use fill="#439FD1" fill-rule="evenodd" xlink:href="#path-4"/><circle cx="4" cy="4" r="5" stroke="#F7F8F9" stroke-width="2"/></g></g><g id="node" fill="#FFF" font-family="OpenSans, Open Sans" font-size="8" font-weight="normal" transform="translate(6.000000, 5.000000)"><g id="node-label"><text id="worker-node"><tspan x="0" y="9">worker node</tspan></text></g></g><rect id="node-border" width="97" height="102" x="0" y="0" stroke="#82949E" stroke-dasharray="8" stroke-width="2" rx="2"/><g id="error" fill="#FFF" transform="translate(32.000000, 55.000000)"><circle id="Oval-3" cx="17" cy="17" r="17"/></g></g><g id="node-1-copy-5"><g id="arrow" transform="translate(48.500000, 119.000000) rotate(-90.000000) translate(-48.500000, -119.000000) translate(32.000000, 115.000000)"><path id="Line" stroke="#82949E" stroke-dasharray="8" stroke-linecap="round" stroke-linejoin="round" stroke-width="2" d="M2,4 L33,4"/><g id="Oval"><use fill="#439FD1" fill-rule="evenodd" xlink:href="#path-5"/><circle cx="4" cy="4" r="5" stroke="#F7F8F9" stroke-width="2"/></g></g><g id="node" fill="#FFF" font-family="OpenSans, Open Sans" font-size="8" font-weight="normal" transform="translate(6.000000, 5.000000)"><g id="node-label"><text id="worker-node"><tspan x="0" y="9">worker node</tspan></text></g></g><rect id="node-border" width="97" height="102" x="0" y="0" stroke="#82949E" stroke-dasharray="8" stroke-width="2" rx="2"/><g id="error" fill="#FFF" transform="translate(32.000000, 55.000000)"><circle id="Oval-3" cx="17" cy="17" r="17"/></g></g></g></g></g></g></g></svg>