<svg xmlns="http://www.w3.org/2000/svg" xmlns:xlink="http://www.w3.org/1999/xlink" width="740" height="250" version="1.1" viewBox="0 0 740 250" style="background:#fff"><title>repair-replica-3</title><desc>Created with Sketch.</desc><defs><circle id="path-1" cx="14" cy="14" r="14"/><circle id="path-2" cx="4" cy="4" r="4"/><circle id="path-3" cx="4" cy="4" r="4"/><circle id="path-4" cx="4" cy="4" r="4"/><circle id="path-5" cx="4" cy="4" r="4"/><circle id="path-6" cx="4" cy="4" r="4"/><circle id="path-7" cx="4" cy="4" r="4"/></defs><g id="dtr-diagrams" fill="none" fill-rule="evenodd" stroke="none" stroke-width="1"><g id="repair-replica-3"><g id="group" transform="translate(29.000000, 38.000000)"><g id="dtr"><g id="network" transform="translate(0.000000, 137.000000)"><rect id="Rectangle-138" width="682" height="14" x="0" y="7" fill="#439FD1" rx="2"/><g id="error" transform="translate(327.000000, 0.000000)"><g id="Oval-3"><use fill="#82949E" fill-rule="evenodd" xlink:href="#path-1"/><circle cx="14" cy="14" r="15.5" stroke="#FFF" stroke-width="3"/></g><path id="Path-5" stroke="#FFF" stroke-width="3" d="M14,14 L6,14 L14,14 L14,6 L14,14 Z M14,14 L14,22 L14,14 L22,14 L14,14 Z" transform="translate(14.000000, 14.000000) rotate(45.000000) translate(-14.000000, -14.000000)"/></g></g><g id="nodes"><g id="node-1-copy-5" transform="translate(585.000000, 0.000000)"><g id="arrow" transform="translate(48.500000, 136.000000) rotate(-90.000000) translate(-48.500000, -136.000000) translate(32.000000, 132.000000)"><path id="Line" stroke="#E0E4E7" stroke-linecap="round" stroke-linejoin="round" stroke-width="2" d="M2,4 L33,4"/><g id="Oval"><use fill="#E0E4E7" fill-rule="evenodd" xlink:href="#path-2"/><circle cx="4" cy="4" r="5" stroke="#F7F8F9" stroke-width="2"/></g></g><rect id="node-border" width="97" height="102" x="0" y="17" fill="#E0E4E7" rx="2"/><text id="+" fill="#FFF" font-family="OpenSans, Open Sans" font-size="100" font-weight="normal"><tspan x="20.411" y="107">+</tspan></text></g><g id="node-1-copy-6" transform="translate(476.000000, 17.000000)"><g id="arrow" transform="translate(48.500000, 119.000000) rotate(-90.000000) translate(-48.500000, -119.000000) translate(32.000000, 115.000000)"><path id="Line" stroke="#439FD1" stroke-linecap="round" stroke-linejoin="round" stroke-width="2" d="M2,4 L33,4"/><g id="Oval"><use fill="#439FD1" fill-rule="evenodd" xlink:href="#path-3"/><circle cx="4" cy="4" r="5" stroke="#F7F8F9" stroke-width="2"/></g></g><g id="node"><g id="node-label"><path id="Rectangle-127" fill="#445D6E" d="M0,2.00295631 C0,0.896754086 0.897702336,0 1.99174577,0 L71,0 L71,10.6452381 C71,16.5244408 66.2312425,21.2904762 60.3513837,21.2904762 L0,21.2904762 L0,2.00295631 Z"/><text id="worker-node" fill="#FFF" font-family="OpenSans, Open Sans" font-size="8" font-weight="normal"><tspan x="6" y="14">worker node</tspan></text></g></g><g id="engine" transform="translate(1.000000, 43.000000)"><rect id="Rectangle-138" width="95" height="58" x="0" y="0" fill="#1488C6" rx="2"/><text id="DTR" fill="#FFF" font-family="OpenSans, Open Sans" font-size="10" font-weight="normal"><tspan x="38.498" y="33">DTR</tspan></text></g><rect id="node-border" width="97" height="102" x="0" y="0" stroke="#445D6E" stroke-width="2" rx="2"/></g><g id="node-1-copy-5" transform="translate(367.000000, 17.000000)"><g id="arrow" transform="translate(48.500000, 119.000000) rotate(-90.000000) translate(-48.500000, -119.000000) translate(32.000000, 115.000000)"><path id="Line" stroke="#439FD1" stroke-linecap="round" stroke-linejoin="round" stroke-width="2" d="M2,4 L33,4"/><g id="Oval"><use fill="#439FD1" fill-rule="evenodd" xlink:href="#path-4"/><circle cx="4" cy="4" r="5" stroke="#F7F8F9" stroke-width="2"/></g></g><g id="node"><g id="node-label"><path id="Rectangle-127" fill="#445D6E" d="M0,2.00295631 C0,0.896754086 0.897702336,0 1.99174577,0 L71,0 L71,10.6452381 C71,16.5244408 66.2312425,21.2904762 60.3513837,21.2904762 L0,21.2904762 L0,2.00295631 Z"/><text id="worker-node" fill="#FFF" font-family="OpenSans, Open Sans" font-size="8" font-weight="normal"><tspan x="6" y="14">worker node</tspan></text></g></g><g id="engine" transform="translate(1.000000, 43.000000)"><rect id="Rectangle-138" width="95" height="58" x="0" y="0" fill="#1488C6" rx="2"/><text id="DTR" fill="#FFF" font-family="OpenSans, Open Sans" font-size="10" font-weight="normal"><tspan x="38.498" y="33">DTR</tspan></text></g><rect id="node-border" width="97" height="102" x="0" y="0" stroke="#445D6E" stroke-width="2" rx="2"/></g><g id="node-1-copy-2" transform="translate(218.000000, 17.000000)"><g id="arrow" transform="translate(48.500000, 119.000000) rotate(-90.000000) translate(-48.500000, -119.000000) translate(32.000000, 115.000000)"><path id="Line" stroke="#439FD1" stroke-linecap="round" stroke-linejoin="round" stroke-width="2" d="M2,4 L33,4"/><g id="Oval"><use fill="#439FD1" fill-rule="evenodd" xlink:href="#path-5"/><circle cx="4" cy="4" r="5" stroke="#F7F8F9" stroke-width="2"/></g></g><g id="node"><g id="node-label"><path id="Rectangle-127" fill="#445D6E" d="M0,2.00295631 C0,0.896754086 0.897702336,0 1.99174577,0 L71,0 L71,10.6452381 C71,16.5244408 66.2312425,21.2904762 60.3513837,21.2904762 L0,21.2904762 L0,2.00295631 Z"/><text id="worker-node" fill="#FFF" font-family="OpenSans, Open Sans" font-size="8" font-weight="normal"><tspan x="6" y="14">worker node</tspan></text></g></g><g id="engine" transform="translate(1.000000, 43.000000)"><rect id="Rectangle-138" width="95" height="58" x="0" y="0" fill="#1488C6" rx="2"/><text id="DTR" fill="#FFF" font-family="OpenSans, Open Sans" font-size="10" font-weight="normal"><tspan x="38.498" y="33">DTR</tspan></text></g><rect id="node-border" width="97" height="102" x="0" y="0" stroke="#445D6E" stroke-width="2" rx="2"/></g><g id="node-1-copy" transform="translate(109.000000, 17.000000)"><g id="arrow" transform="translate(48.500000, 119.000000) rotate(-90.000000) translate(-48.500000, -119.000000) translate(32.000000, 115.000000)"><path id="Line" stroke="#439FD1" stroke-linecap="round" stroke-linejoin="round" stroke-width="2" d="M2,4 L33,4"/><g id="Oval"><use fill="#439FD1" fill-rule="evenodd" xlink:href="#path-6"/><circle cx="4" cy="4" r="5" stroke="#F7F8F9" stroke-width="2"/></g></g><g id="node"><g id="node-label"><path id="Rectangle-127" fill="#445D6E" d="M0,2.00295631 C0,0.896754086 0.897702336,0 1.99174577,0 L71,0 L71,10.6452381 C71,16.5244408 66.2312425,21.2904762 60.3513837,21.2904762 L0,21.2904762 L0,2.00295631 Z"/><text id="worker-node" fill="#FFF" font-family="OpenSans, Open Sans" font-size="8" font-weight="normal"><tspan x="6" y="14">worker node</tspan></text></g></g><g id="engine" transform="translate(1.000000, 43.000000)"><rect id="Rectangle-138" width="95" height="58" x="0" y="0" fill="#1488C6" rx="2"/><text id="DTR" fill="#FFF" font-family="OpenSans, Open Sans" font-size="10" font-weight="normal"><tspan x="38.498" y="33">DTR</tspan></text></g><rect id="node-border" width="97" height="102" x="0" y="0" stroke="#445D6E" stroke-width="2" rx="2"/></g><g id="node-1" transform="translate(0.000000, 17.000000)"><g id="arrow" transform="translate(48.500000, 119.000000) rotate(-90.000000) translate(-48.500000, -119.000000) translate(32.000000, 115.000000)"><path id="Line" stroke="#439FD1" stroke-linecap="round" stroke-linejoin="round" stroke-width="2" d="M2,4 L33,4"/><g id="Oval"><use fill="#439FD1" fill-rule="evenodd" xlink:href="#path-7"/><circle cx="4" cy="4" r="5" stroke="#F7F8F9" stroke-width="2"/></g></g><g id="node"><g id="node-label"><path id="Rectangle-127" fill="#445D6E" d="M0,2.00295631 C0,0.896754086 0.897702336,0 1.99174577,0 L71,0 L71,10.6452381 C71,16.5244408 66.2312425,21.2904762 60.3513837,21.2904762 L0,21.2904762 L0,2.00295631 Z"/><text id="worker-node" fill="#FFF" font-family="OpenSans, Open Sans" font-size="8" font-weight="normal"><tspan x="6" y="14">worker node</tspan></text></g></g><g id="engine" transform="translate(1.000000, 43.000000)"><rect id="Rectangle-138" width="95" height="58" x="0" y="0" fill="#1488C6" rx="2"/><text id="DTR" fill="#FFF" font-family="OpenSans, Open Sans" font-size="10" font-weight="normal"><tspan x="38.498" y="33">DTR</tspan></text></g><rect id="node-border" width="97" height="102" x="0" y="0" stroke="#445D6E" stroke-width="2" rx="2"/></g></g></g></g></g></g></svg>